<svg xmlns="http://www.w3.org/2000/svg" width="250" height="250" viewBox="0 0 2816.47 2864.823">
    <path fill="#5fd3bc" d="M-24.177 0h2864.823v2864.823H-24.177z"/>
    <path d="M1425.493 2864.034c-.78-.506-2.348-3.731-3.487-7.17-1.14-3.436-3.485-9.281-5.213-12.986-1.73-3.706-2.98-7.987-2.78-9.514.2-1.527-.255-3.558-1.01-4.513-1.173-1.48-3.157-7.223-3.493-10.11-.056-.482-.806-1.58-1.665-2.438-.86-.86-1.562-3.07-1.562-4.91 0-1.841-.83-5.334-1.845-7.761-3.53-8.45-5-19.96-6.257-49.017-.148-3.437-.732-7.326-1.297-8.642-.688-1.604-.583-2.12.317-1.563 1.375.85 1.338-.394-.478-16.045-.48-4.125-.736-8.26-.572-9.188.185-1.042-.286-1.326-1.228-.744-.954.59-1.205.423-.67-.445.473-.764 1.826-1.027 3.007-.584 1.856.695 1.92.525.477-1.25-.918-1.13-1.307-2.641-.863-3.36.443-.717-.071-1.304-1.143-1.304-1.071 0-1.948-.562-1.948-1.25 0-.687.484-1.25 1.076-1.25.592 0 .81-1.4.482-3.11-.327-1.71-1.092-2.803-1.701-2.426-1.923 1.188-1.197-6.584.768-8.214 2.567-2.13 2.457-7.5-.153-7.5-1.605 0-1.723-.368-.565-1.764 1-1.204 1.049-2.02.154-2.573-.77-.476-1.146-4.255-.913-9.174.218-4.6-.024-9.91-.54-11.801-.702-2.584-.49-3.438.854-3.438.983 0 1.788-.596 1.788-1.324 0-.728-.5-1.015-1.108-.64-.61.378-1.4-.433-1.758-1.8-.358-1.367-.12-2.486.527-2.486s.502-1.26-.323-2.802c-1.828-3.415-2.824-9.6-2.82-17.51 0-3.266-.358-5.938-.8-5.938-.441 0-.834-2.672-.872-5.937-.038-3.266-.436-13.813-.884-23.438l-1.952-41.875c-1.104-23.698-2.033-31.523-4.971-41.875-.78-2.75-1.632-15.63-1.891-28.621-.343-17.187-.9-23.886-2.042-24.593-1.26-.778-1.258-1.347.01-2.874 1.64-1.976 1.573-7.902-.115-10.27-.533-.748-.836-14.39-.673-30.314.164-15.924.015-28.957-.328-28.96-.344 0-.764-6.894-.933-15.312-.17-8.418-.857-16.712-1.527-18.43-1.435-3.682-1.173-7.745.585-9.063.833-.625.833-1.25 0-1.875-.688-.516-1.324-3.47-1.415-6.563-.433-14.756-1.542-30.248-2.214-30.92-.41-.41-.746-2.655-.746-4.987 0-2.887.46-3.956 1.443-3.348.99.61 1.097.34.343-.864-.605-.966-1.14-4.013-1.187-6.773-.048-2.76-.513-5.707-1.034-6.55-1.643-2.66-.652-19.263 1.11-18.587 1.006.387 1.323-.244.913-1.814-.346-1.324-1.014-2.407-1.483-2.407-1.366 0 .076-9.27 1.619-10.407 1.015-.75.97-1.208-.162-1.667-.86-.35-1.58-2.697-1.602-5.217-.022-2.521-.85-5.656-1.842-6.966-1.607-2.123-1.523-2.624.78-4.62 1.42-1.232 2.215-2.832 1.768-3.556-.448-.724-.158-1.317.644-1.317.848 0 1.122-.873.656-2.087-.44-1.15-.08-2.598.804-3.22.95-.67 1.094-1.35.355-1.662-.703-.298-1.116-4.224-.943-8.968.168-4.64.376-10.613.462-13.272.085-2.658-.525-5.254-1.357-5.768-1.136-.702-.914-2.137.897-5.79 1.925-3.883 2.17-5.736 1.22-9.233-.653-2.406-1.334-7.266-1.513-10.8-.18-3.535-.764-7.138-1.301-8.006-.645-1.044-.472-1.268.51-.662 1.586.98 1.158-4.14-.582-6.954-.544-.881-.364-1.13.452-.626.747.462 1.71.267 2.142-.431.432-.7.284-1.27-.33-1.27-.92 0-1.11-4.883-.23-5.938.806-.968.57-3.647-.44-5-.76-1.016-.677-1.563.235-1.563.772 0 1.403-.545 1.403-1.21 0-.667-.766-.917-1.703-.558-1.37.526-1.675-1.683-1.562-11.284.108-9.214.53-11.94 1.855-11.943 1.455 0 1.455-.32 0-2.07-1.051-1.267-1.77-5.41-1.855-10.704-.077-4.75-.736-9.232-1.465-9.96-.73-.73-1.027-2.1-.664-3.048.364-.948.02-1.723-.766-1.723-.912 0-1.062-.79-.416-2.187 1.667-3.601.228-27.408-1.862-30.812-1.574-2.562-1.286-9.34.424-9.995.97-.373 1.764-1.6 1.764-2.725 0-1.321-.676-1.79-1.904-1.318-1.583.608-1.667.288-.497-1.897 1.178-2.202.91-3.125-1.651-5.686-2.913-2.913-3.91-3.078-21.066-3.487-18.434-.44-21.662-.756-23.18-2.273-.477-.48-2.134-.87-3.681-.87-1.547 0-3.05-.703-3.34-1.562-.415-1.237-.935-1.224-2.492.06-1.173.969-2.264 1.142-2.704.43-.406-.656-1.876-.895-3.267-.531-2.844.744-13.034-1.684-16.843-4.012-1.375-.84-5.875-2.508-10-3.706-4.125-1.197-7.88-2.79-8.345-3.54-.465-.75-2.434-1.572-4.375-1.827-1.942-.256-4.064-.994-4.718-1.64-.653-.644-1.993-1.171-2.978-1.171-.985 0-2.7-1.024-3.812-2.275-2.065-2.323-6.275-4.53-7.96-4.174-.515.109-.937-.364-.937-1.051 0-.688-.804-1.25-1.786-1.25s-2.555-.77-3.496-1.71c-.94-.941-2.874-2.08-4.297-2.532-2.188-.694-6.648-4.665-13.8-12.283-2.42-2.578-5.906-5.376-6.278-5.038-1.053.959-2.843.07-2.843-1.41 0-.95-1.828-2.462-4.063-3.365-2.234-.902-4.52-2.393-5.082-3.312-.56-.92-4.125-3.424-7.92-5.567-3.796-2.142-7.193-4.654-7.55-5.582-.356-.928-1.15-1.376-1.766-.995-.616.38-1.12.233-1.12-.328 0-.56-1.827-1.797-4.062-2.748-2.234-.952-5.468-2.975-7.187-4.497-1.72-1.522-4.11-3.113-5.313-3.536-1.203-.423-2.187-1.853-2.187-3.177s-1.44-3.733-3.198-5.352c-2.698-2.483-5.678-7.327-6.072-9.87-.307-1.98-8.618-11.106-9.575-10.514-.62.382-.791-.178-.382-1.245.41-1.066.24-1.94-.373-1.94-.615 0-1.206-1.17-1.314-2.602-.19-2.531-5.104-9.858-9.15-13.647-1.102-1.032-4.42-5.11-7.372-9.063-2.952-3.953-5.862-7.187-6.466-7.187-.604 0-1.098-1.163-1.098-2.585 0-2.041.54-2.412 2.579-1.765 2.333.74 2.426.574.98-1.74-.877-1.406-2.741-2.721-4.14-2.922-2.036-.292-2.482-1.17-2.232-4.387.243-3.134-.102-3.864-1.563-3.303-1.277.49-1.874-.07-1.874-1.762 0-1.364-.844-3.18-1.875-4.036-1.031-.856-1.875-2.921-1.875-4.59 0-1.666-1.962-6.097-4.36-9.845-2.397-3.75-4.02-6.815-3.606-6.815.414 0-.073-1.266-1.082-2.813-1.01-1.547-2.238-5.517-2.731-8.823-.501-3.362-1.68-6.311-2.676-6.693-.98-.376-1.47-1.187-1.09-1.802.38-.616.156-1.12-.5-1.12-1.308 0-2.805-8.174-2.726-14.884.028-2.343-.77-5.51-1.77-7.038-1.78-2.716-1.945-8.508-.29-10.163 1.409-1.41.92-2.914-.944-2.914-1.17 0-2.437-2.91-3.72-8.547-1.068-4.701-2.756-10.115-3.75-12.03-.994-1.917-1.527-4.214-1.185-5.106.342-.892.047-2.697-.656-4.01-.703-1.314-1.378-7.405-1.5-13.536-.122-6.13-.764-13.678-1.425-16.771-1.084-5.07-1.455-23.268-.636-31.25.176-1.72-.483-5.375-1.464-8.125s-1.942-10.614-2.135-17.475c-.216-7.685-.88-12.65-1.73-12.934-.996-.332-1-.915-.016-2.102.944-1.137.96-1.891.052-2.452-2.075-1.283-1.523-6.67.818-7.98 1.778-.994 1.86-1.514.5-3.151-1.256-1.515-1.442-6.026-.816-19.81 1.84-40.498 3.81-56.773 8.904-73.471a4716.388 4716.388 0 0 0 7.499-24.845c1.713-5.758 3.66-11.487 4.325-12.73.665-1.244 1.21-3.314 1.21-4.6 0-2.713 15.342-29.026 18.126-31.088 1.03-.764 1.882-2.17 1.893-3.125.015-1.391.26-1.364 1.23.138 1.049 1.62 1.215 1.593 1.23-.21.01-1.145.442-2.32.958-2.606.516-.29.234-.353-.625-.144-2.19.534-1.954-.524.938-4.2 2.163-2.75 2.502-2.86 2.519-.822.016 1.934.227 2.028 1.178.523.729-1.151.685-2.404-.117-3.37-.702-.847-1.11-2.834-.905-4.418.205-1.583-.102-3.642-.683-4.575-.801-1.288-.45-1.504 1.456-.9 1.953.62 2.683.113 3.284-2.282.426-1.694 1.897-3.436 3.27-3.872 1.374-.436 2.498-1.88 2.498-3.21 0-1.327.843-2.414 1.875-2.414 1.03 0 1.808-.422 1.727-.938-.37-2.342.26-4.062 1.487-4.062 2.395 0 4.91-3.496 4.91-6.824 0-2.157 1.486-4.557 4.41-7.124 2.882-2.53 4.176-4.603 3.737-5.986-.46-1.446 2.48-5.45 9.288-12.653 5.478-5.796 10.406-10.507 10.95-10.468.545.039 2.08-.946 3.414-2.188 2.195-2.045 2.22-2.257.253-2.257-3.445 0 4.77-9.418 13.26-15.2 5.095-3.468 7.19-5.7 7.2-7.66.01-1.847 2.68-5.05 8.046-9.64 4.42-3.782 8.07-7.86 8.114-9.063.049-1.35 1.065-2.187 2.652-2.187 1.416 0 2.304-.438 1.973-.973-.964-1.56 3.473-6.641 6.14-7.033 1.34-.197 2.464-1.148 2.495-2.114.03-.965.735-1.615 1.563-1.443.828.172 1.506-.25 1.506-.937 0-.688.843-1.25 1.875-1.25 1.03 0 1.875.562 1.875 1.25 0 .687.484 1.25 1.076 1.25.592 0 .808-1.407.48-3.125-.418-2.182-.045-3.125 1.232-3.125 1.006 0 3.156-1.151 4.777-2.557 1.62-1.406 4.942-3.764 7.379-5.24 2.437-1.476 5.67-3.982 7.183-5.57 1.514-1.585 3.302-2.883 3.974-2.883.67 0 1.98-.76 2.908-1.69.929-.927 5.047-3.457 9.152-5.621 4.105-2.164 6.62-3.94 5.589-3.945-1.078-.013-.36-1.01 1.684-2.358 2.458-1.62 3.038-2.554 1.875-3.018-.926-.37.284-.724 2.69-.79 2.78-.074 3.788-.49 2.765-1.14-1.113-.705-.05-1.634 3.436-3.004 3.95-1.551 4.866-2.457 4.212-4.164-.557-1.45-.364-1.888.574-1.308 1.756 1.085 6.514-1.756 6.514-3.888 0-.866 1.125-1.574 2.5-1.574s2.503-.704 2.508-1.563c.01-1.967 6.856-5.937 10.239-5.937 1.969 0 2.39-.594 1.858-2.624-.55-2.107-.22-2.502 1.685-2.004 2.874.752 9.966-4.741 7.288-5.645-1.258-.424-.886-1.44 1.422-3.88 1.718-1.817 3.703-3.314 4.41-3.326 1.774-.03 5.465-4.53 6.977-8.507.955-2.513 1.51-2.892 2.32-1.584.63 1.02.878-1.4.608-5.94-.27-4.554.083-7.994.873-8.482.936-.578.933-1.065-.01-1.648-.82-.507-1.477-7.662-1.696-18.47-.196-9.701-.773-17.386-1.28-17.075-.508.31-.59-.31-.18-1.376.41-1.07.092-1.94-.712-1.94-.802 0-1.121-.544-.71-1.21 1.285-2.08-29.085-31.29-32.534-31.29-1 0-1.817-1.107-1.817-2.46s-1.265-3.181-2.812-4.063c-6.55-3.731-14.688-10.334-14.688-11.916 0-.94-.587-1.346-1.304-.902-1.73 1.068-5.142-1.83-4.114-3.494.478-.773.196-.925-.693-.375-1.797 1.11-6.407-1.757-12.702-7.9-2.546-2.483-6.527-5.825-8.846-7.427-32.407-22.383-81.09-63.406-81.09-68.332 0-.887-.844-1.937-1.876-2.333-1.03-.396-1.875-1.44-1.875-2.321 0-.881-1.828-3.061-4.062-4.845-2.235-1.784-4.891-4.878-5.905-6.875-1.013-1.998-5.787-7.728-10.61-12.733-4.823-5.006-8.776-9.798-8.783-10.65-.01-.85-1.302-2.932-2.876-4.624-1.573-1.691-3.18-4.352-3.573-5.913-.391-1.56-1.19-2.837-1.773-2.837-.584 0-2.598-2.672-4.475-5.937-1.877-3.266-4.442-7.292-5.7-8.947-1.435-1.888-1.988-3.983-1.484-5.625.44-1.439.39-2.227-.113-1.752-1.201 1.134-5.815-3.454-9.223-9.172-1.494-2.507-4.113-5.473-5.82-6.59-1.706-1.12-3.103-2.865-3.103-3.88 0-1.016-.521-1.847-1.16-1.847-1.34 0-8.348-14.352-9.563-19.587-1.066-4.595-5.74-14.436-7.616-16.038-2.98-2.545-8.22-14.195-7.888-17.539.037-.37-.797-1.54-1.853-2.595-1.056-1.056-1.92-3.198-1.92-4.762 0-1.563-1.093-3.83-2.43-5.04-1.335-1.209-2.8-3.888-3.253-5.953-.453-2.065-2.173-5.74-3.82-8.17-1.648-2.428-2.997-5.495-2.997-6.814 0-1.32-.562-2.052-1.25-1.627-1.214.75-1.755-.883-1.344-4.057.11-.857-.881-2.72-2.205-4.14-2.454-2.635-4.285-9.582-4.593-17.428-.094-2.406-.832-5.604-1.64-7.105-.807-1.502-1.468-3.767-1.468-5.035 0-1.267-.875-3.554-1.946-5.082-1.07-1.528-1.62-2.778-1.224-2.778.397 0-.5-2.39-1.993-5.312s-2.906-7.546-3.14-10.276c-.232-2.729-1.331-6.876-2.441-9.215-1.498-3.158-1.692-4.967-.753-7.027.757-1.662.817-3.48.15-4.535-.613-.968-1.123-1.226-1.134-.572-.01.734-.481.724-1.23-.024-1.253-1.253-3.058-11.762-2.777-16.164.43-6.742 2.292-17.694 3.273-19.256.805-1.283.656-1.48-.554-.732-1.202.743-1.437.453-.857-1.057.442-1.153.193-2.08-.56-2.08-.83 0-1.02-1.088-.484-2.812.97-3.136.964-5.5-.052-16.978-.386-4.353-.157-9.473.507-11.378 2.14-6.14-2.841-7.157-42.91-8.757-77.11-3.08-69.235-1.946-80.707-11.626-3.048-2.573-8.071-6.537-11.162-8.81-7.25-5.33-7.762-7.887-2.062-10.269 2.412-1.008 4.692-2.328 5.066-2.933.375-.606 2.124-.826 3.888-.489 2.243.43 3.097.112 2.842-1.054-.328-1.5.619-1.834 7.448-2.629 1.49-.173 2.09-1.614 1.66-3.98-.11-.6.738-.732 1.885-.292 1.146.44 2.857.16 3.8-.624.945-.784 1.717-1.115 1.717-.735s3.797-.422 8.438-1.78c4.685-1.37 13.44-2.659 19.687-2.895 13.214-.5 18.172-1.53 20.313-4.223 1.42-1.784 1.562-1.783 1.562.013 0 2.542 8.377 3.776 9.3 1.37.342-.89 1.802-1.619 3.243-1.619 1.442 0 3.676-.564 4.964-1.253 1.567-.84 2.599-.838 3.12.005.96 1.554 5.974.388 12.209-2.84 3.57-1.848 7.91-2.545 17.944-2.882 7.278-.245 14.35-.8 15.716-1.233 4.078-1.294 7.975-14.099 7.504-24.654-.087-1.946.375-3.154 1.047-2.739.712.44 1.273-2.223 1.374-6.517.094-3.994.356-9.512.582-12.262.424-5.143 4.143-14.335 5.81-14.36.516-.008.937-1.193.937-2.634 0-1.44 1.138-4.217 2.528-6.169 1.39-1.952 2.425-4.007 2.3-4.568-.123-.56.099-1.862.495-2.894.957-2.497 2.645-9.06 2.733-10.625.038-.687.473-1.553.966-1.923.494-.37 1.056-2.62 1.25-5 .195-2.38.795-4.653 1.335-5.053.54-.4 1.277-2.368 1.638-4.375.36-2.007 1.184-4.183 1.83-4.836.647-.653 1.175-2.49 1.175-4.083 0-2.07 1.23-3.482 4.322-4.956 2.377-1.133 4.03-2.53 3.676-3.105-.355-.574-.067-1.044.64-1.044.706 0 .96-.844.565-1.875-.396-1.03-.097-1.875.664-1.875.76 0 1.383-.792 1.383-1.76 0-1.6 3.57-9.539 8.38-18.64 1.026-1.937 1.576-3.81 1.224-4.164-.893-.892 2.687-9.15 5.535-12.77 1.299-1.652 2.36-3.859 2.36-4.904 0-1.046 1.548-3.923 3.439-6.394 1.89-2.47 3.437-5.618 3.437-6.993s.704-2.444 1.563-2.375c.86.07 2.72.21 4.136.312 1.702.124 2.256.717 1.635 1.75-.594.99-.133.91 1.257-.22 1.4-1.136 1.947-2.77 1.51-4.51-.712-2.837 1.658-5.744 5.916-7.258 1.247-.444 1.934-1.345 1.528-2.003-.974-1.575 3.976-4.188 5.8-3.06.818.505 1.074.32.606-.437-.446-.722.03-1.635 1.057-2.029 1.083-.416 1.867-2.293 1.867-4.47 0-3.16.642-3.939 4.063-4.927 2.234-.645 3.34-1.223 2.456-1.285-1.224-.086-1.283-.717-.25-2.648.746-1.394 1.978-2.15 2.737-1.682.83.514 1.027.281.492-.585-.53-.858.398-2.024 2.307-2.893 1.758-.8 3.21-2.07 3.226-2.818.017-.75 3.392-4.92 7.5-9.272 4.108-4.35 7.47-8.428 7.47-9.062 0-.634.544-1.153 1.21-1.153.665 0 2.049-1.547 3.075-3.438 1.025-1.89 1.887-2.885 1.914-2.21.028.676 1.477-.87 3.22-3.437 1.744-2.566 3.956-4.665 4.916-4.665.96 0 2.103-1.125 2.54-2.5.436-1.375 1.659-2.5 2.717-2.5 1.198 0 1.653-.709 1.205-1.875-.395-1.03-.174-1.875.492-1.875.666 0 1.21-1.125 1.21-2.5 0-1.389.834-2.5 1.875-2.5a1.88 1.88 0 0 0 1.875-1.875c0-2 1.488-2.47 3.005-.953 1.85 1.85 5.135.873 8.35-2.485 1.81-1.89 3.846-3.437 4.525-3.437.678 0 2.27-1.146 3.538-2.547 1.726-1.908 3.2-2.35 5.869-1.765 2.7.593 4.59 0 7.805-2.453 2.333-1.78 5.39-3.235 6.796-3.235 1.405 0 3.448-1.363 4.54-3.029 1.3-1.987 3.674-3.314 6.897-3.859 2.702-.456 5.23-1.343 5.618-1.97.388-.629 1.78-1.142 3.092-1.142 1.608 0 2.152-.612 1.668-1.875-.886-2.308 3.33-2.593 5.547-.375 1.167 1.167 1.5 1.05 1.5-.526 0-1.234 1.465-2.347 3.75-2.85 2.063-.452 3.75-1.406 3.75-2.12 0-.712 1.125-1 2.5-.642 1.482.387 2.5.04 2.5-.856 0-.83 3.647-2.553 8.103-3.827 5.292-1.514 8.347-3.087 8.807-4.536.387-1.22 2.506-2.606 4.71-3.078 2.203-.473 4.568-1.215 5.255-1.65.688-.434 2.938-.89 5-1.013 2.063-.123 6.399-.733 9.635-1.357 3.237-.623 6.606-.687 7.488-.142.895.553 2.714.263 4.115-.655 1.593-1.043 6.097-1.596 12.307-1.51 6.656.093 10.226-.384 11.142-1.488.742-.894 2.522-1.513 3.956-1.377 1.434.137 3.6-.18 4.816-.704 1.214-.524 3.51-.703 5.104-.399 3 .574 4.062-2 1.944-4.71-1.3-1.666.024-7.016 1.51-6.097 1.138.703 1.61-1.148 1.138-4.463-.361-2.534-.86-2.907-2.521-1.88-.957.59-.69 1.395.83 2.507 2.016 1.474 1.908 1.573-1.086 1.001-2.313-.442-3.106-1.206-2.607-2.508.395-1.03-.067-2.42-1.026-3.09-1.343-.94-1.385-1.366-.182-1.854.86-.35 1.562-1.467 1.562-2.484s.985-1.75 2.188-1.627c4.464.454 5.585-.05 4.779-2.153-.44-1.148-.148-2.49.65-2.985.81-.5 1.02-1.597.478-2.477-.537-.868-.868-4.166-.736-7.327l.617-14.81c.208-4.985-.054-9.063-.582-9.063-1.86 0-1.93-4.4-.104-6.563 1.64-1.94 1.624-2.187-.133-2.187-1.64 0-1.782-.698-.82-4.054.64-2.23 1.164-6.168 1.164-8.75 0-2.583.523-4.696 1.162-4.696.697 0 .734-1.497.092-3.733-.663-2.312-.598-4.025.169-4.5.75-.464.468-1.618-.72-2.93-1.077-1.19-1.536-2.588-1.02-3.105.518-.517.992-2.44 1.054-4.274.062-1.833.568-6.37 1.124-10.084.65-4.339.574-6.482-.212-5.996-.672.415-.221-2.21 1.002-5.833 2.208-6.542 2.098-14.484-.262-18.92-.366-.688-.545-2.656-.398-4.375.147-1.719.579-9.313.96-16.875.38-7.563 1.2-15.44 1.82-17.505 1.25-4.166-1.092-15.852-3.327-16.597-.717-.239-.957-1.34-.532-2.446.549-1.43.233-1.804-1.098-1.294-1.798.69-5.656-3.559-5.08-5.596.146-.515-.78-.937-2.057-.937-1.51 0-3.418-2.11-5.453-6.035-2.667-5.14-2.888-6.366-1.493-8.275.902-1.233 1.492-4.11 1.312-6.395-.18-2.285.06-3.916.53-3.624.885.546 7.443-16.317 7.432-19.109 0-.859.8-1.562 1.785-1.562 1.627 0 3.574-3.603 3.76-6.96.04-.733.918-2.26 1.95-3.393 5.122-5.628 5.268-5.943 3.657-7.884-1.63-1.963-.628-3.777 2.475-4.486.967-.22 3.976-4.76 6.686-10.09 2.71-5.328 5.576-9.68 6.367-9.67 3.458.041 7.064 1.655 7.064 3.162 0 1.57 6.55 5.571 9.12 5.571 2.225 0 8.594 7.64 7.893 9.467-.397 1.034.07 1.783 1.112 1.783 1.194 0 1.519-.735.969-2.188-.78-2.057-.702-2.06 1.31-.067 1.178 1.167 1.99 2.854 1.806 3.75-.184.897.368 1.49 1.228 1.317.86-.17 1.562.437 1.562 1.352s1.442 2.435 3.204 3.378c1.762.943 6.3 5.088 10.084 9.211l6.879 7.496-.872 9.438c-.48 5.19-1.433 9.797-2.12 10.236-.684.438-.941 1.29-.57 1.89.917 1.484-2.388 7.47-3.691 6.687-.571-.344-1.218.64-1.438 2.187-.22 1.547-.923 2.813-1.563 2.813-.64 0-1.163 1.038-1.163 2.306 0 1.27-1.125 3.325-2.5 4.57-1.375 1.243-2.5 3.3-2.5 4.568 0 1.268-.548 2.306-1.218 2.306-.687 0-.893 1.633-.47 3.742.41 2.06.026 5.486-.856 7.616-1.18 2.846-1.23 4.104-.191 4.746 1.47.91 1.277 8.7-.28 11.22-.493.797-.566 2.49-.162 3.76.42 1.322-.07 2.98-1.143 3.87-1.185.984-1.52 2.316-.908 3.615.533 1.13.904 4.306.826 7.056-.08 2.75.386 5.703 1.032 6.562.805 1.07.614 1.563-.604 1.563-1.451 0-1.618 1.56-.903 8.437.483 4.641.593 8.901.246 9.468-.87 1.42-1.606 7.467-2.083 17.095-.272 5.486.214 9.343 1.495 11.875 2.328 4.6 2.636 8.65 1.092 14.375-1.966 7.292-2.706 23.388-1.693 36.875.258 3.437 0 7.516-.575 9.062-.573 1.547-.566 2.813.016 2.813.583 0 1.065 4.64 1.07 10.312.023 19.88-.01 19.692 3.118 19.36 2.103-.222 2.914.44 3.227 2.632.355 2.48.014 2.8-2.224 2.09-2.51-.796-2.632-.452-2.414 6.801.126 4.202.729 7.95 1.339 8.326.61.377 4.604.916 8.874 1.196 27.707 1.822 37.09 3.03 41.514 5.338 2.063 1.078 4.243 1.82 4.844 1.65.602-.17 2.246.698 3.653 1.93s2.147 1.537 1.644.677c-1.097-1.876 2.453-2.184 3.61-.312.424.687 2.032 1.25 3.573 1.25 1.54 0 3.418.617 4.172 1.371.755.754 4.945 1.9 9.313 2.547 13.732 2.035 16.066 2.575 16.066 3.72 0 2.634.284 3.037 2.8 3.967 1.76.651 3.262.368 4.472-.84 1.31-1.31 2.65-1.507 4.775-.7 1.624.618 2.962.715 2.972.216.01-.498.48-.178 1.046.711.564.89 5.477 3.145 10.918 5.012 5.44 1.867 11.99 4.694 14.557 6.283 2.566 1.59 5.174 2.574 5.796 2.19.622-.385 1.826.138 2.676 1.162.85 1.023 2.073 1.86 2.72 1.86 3.2 0 14.648 6.868 15.852 9.51.75 1.645 1.977 2.99 2.729 2.99 1.752 0 4.937 3.17 4.937 4.912 0 .736.596 1.34 1.324 1.34.728 0 .976-.564.55-1.25-1.18-1.913.509-1.496 4.183 1.031 1.825 1.255 5.287 3.032 7.693 3.95 2.407.916 5.812 2.983 7.569 4.592 1.756 1.61 3.819 2.926 4.583 2.926.765 0 1.578.422 1.807.937.229.516 2.713 2.496 5.52 4.401 2.809 1.905 6.208 4.49 7.555 5.746 1.347 1.255 3.86 3.071 5.584 4.036 11.423 6.395 11.482 6.464 12.955 15.192.468 2.775 1.496 4.688 2.518 4.688.95 0 2.928 1.525 4.394 3.39 2.193 2.788 2.87 3.065 3.822 1.562 1.055-1.669 1.74-.8 1.32 1.677-.308 1.81 3.064 4.3 6.99 5.161 2.957.65 4.016 1.686 4.573 4.472.81 4.047 9.04 12.402 12.27 12.454 3.27.053 6.092 1.44 5.356 2.63-.758 1.226 2.804 7.24 5.667 9.568 1.589 1.291 1.616 1.72.17 2.672-1.85 1.217-.732 4.42 1.138 3.264 2.379-1.47 9.78 9.155 8.18 11.744-.478.775.637 1.653 2.666 2.1 5.815 1.276 6.8 1.741 6.097 2.88-.371.6.372 2.04 1.652 3.198 1.28 1.158 2.646 3.697 3.034 5.641.39 1.945 1.552 4.38 2.584 5.412 1.033 1.033 1.542 2.212 1.133 2.622-.41.41.139 1.083 1.219 1.497 1.085.417 1.762 1.794 1.514 3.083-.31 1.605.108 2.115 1.34 1.642 1.205-.462 1.79.176 1.79 1.947 0 1.45.489 2.634 1.086 2.634.598 0 .887 1.716.642 3.813-.244 2.097.05 3.508.656 3.134.605-.374 1.422.605 1.816 2.175.394 1.57 2.976 5.082 5.738 7.804 2.76 2.722 5.03 5.592 5.04 6.378.012.785.866 1.752 1.897 2.148 1.185.455 1.875 2.371 1.875 5.207 0 2.674-.505 4.176-1.25 3.716-1.977-1.222-1.453 1.4.625 3.125 1.032.856 1.875 2.056 1.875 2.667 0 .61 1.173 3.605 2.606 6.654 1.56 3.318 2.278 6.576 1.789 8.117-.54 1.698-.188 2.816 1.03 3.283 1.015.39 2.545 2.496 3.398 4.681a737.57 737.57 0 0 0 3.078 7.723c.839 2.062 2.272 6.281 3.185 9.375.913 3.094 2.42 6.834 3.349 8.313 1.305 2.076 1.34 2.804.156 3.198-.883.295-1.12 1.18-.56 2.085.534.866 1.702 1.294 2.594.952 2.009-.77 3.222 7.355 1.374 9.203-1.498 1.498-2.344 1.423 18.99 1.687 12.602.156 16.872.622 17.68 1.93.673 1.09 2.327 1.483 4.49 1.07 1.886-.36 10.242.352 18.57 1.584 8.33 1.231 15.572 1.976 16.093 1.654.52-.32 1.273.268 1.673 1.31.4 1.04 2.61 2.515 4.914 3.275 5.598 1.848 10.365 10.884 7.858 14.898-.89 1.425-2.186 2.613-2.88 2.64-1.23.047-7.854 8.328-12.154 15.193-1.178 1.88-5.05 4.893-8.602 6.693-3.552 1.8-7.616 4.351-9.03 5.67-1.415 1.317-3.36 2.395-4.323 2.395-.964 0-2.686 1.092-3.827 2.428-1.563 1.827-5.475 2.933-15.826 4.473-7.562 1.126-14.593 2.24-15.625 2.477-1.03.237-3 .474-4.375.526-2.425.093-2.497.936-2.426 28.352.05 18.794-.37 28.428-1.25 28.77-.728.282-1.488 3.398-1.688 6.923-.2 3.525-.96 7.521-1.687 8.88-.931 1.74-.93 2.23 0 1.654 1.633-1.01-.925 7.02-2.59 8.127-.607.405-1.25 2.092-1.427 3.75-.655 6.12-3.82 13.825-6.197 15.098-1.49.798-1.93 1.631-1.124 2.13 1.325.818.03 8.792-2.36 14.537-.573 1.375-1.947 6.122-3.055 10.55-1.906 7.62-6.11 17.46-8.044 18.825-.487.344-1.222 2.36-1.634 4.478-.411 2.12-2.423 7.463-4.47 11.875-2.047 4.412-4.39 10.272-5.208 13.022-.816 2.75-2.927 7.137-4.69 9.75-1.761 2.612-3.342 6.061-3.513 7.664-.405 3.796-5.186 13.231-8.124 16.032-1.267 1.208-1.982 3.037-1.588 4.063.496 1.29-.096 1.866-1.917 1.866-2.35 0-3.327 1.864-2.782 5.312.08.516-.361.938-.983.938-.623 0-2.611 2.525-4.42 5.61-1.808 3.086-3.937 5.477-4.732 5.313-.794-.164-1.67.737-1.944 2.003-.447 2.057-5.273 7.97-5.273 6.46 0-.337-1.688 1.152-3.75 3.31-2.063 2.16-3.75 4.638-3.75 5.51 0 .872-.426 1.773-.947 2.002-.521.23-3.861 4.377-7.423 9.216-3.562 4.84-7.708 9.902-9.214 11.25-1.505 1.348-5.178 6.107-8.162 10.576-2.984 4.47-7.294 10.094-9.577 12.5-2.283 2.406-5.765 6.514-7.738 9.128-2.378 3.152-3.894 4.254-4.502 3.27-.553-.894-1.28.193-1.838 2.748-.818 3.747-2.988 7.28-8.366 13.625-.885 1.043-3.546 4.419-5.914 7.5-2.368 3.083-6.727 7.985-9.687 10.895-2.96 2.91-5.382 6.185-5.382 7.277 0 1.902-2.932 5.695-4.33 5.602-2.404-.16-2.95.228-3.552 2.532-.415 1.585-1.505 2.427-2.832 2.187-1.507-.272-2.231.52-2.403 2.628-.135 1.66-2.301 4.902-4.814 7.205-2.513 2.302-4.57 4.71-4.57 5.349 0 .64-1.016 1.897-2.26 2.796-1.242.898-4.148 4.445-6.457 7.883-2.31 3.437-7.404 9.344-11.322 13.125-3.92 3.78-7.503 7.719-7.966 8.75-1.805 4.02-4.46 8.063-4.515 6.875-.032-.688-.908-.125-1.947 1.25-1.04 1.375-2.568 2.5-3.398 2.5-.83 0-1.51.577-1.51 1.283 0 2.325-10.331 10.816-11.033 9.069-.354-.881-.688-.424-.742 1.017-.105 2.79-3.706 6.756-6.135 6.756-.805 0-1.47.422-1.477.937-.032 2.23-14.67 16.445-17.716 17.205-2.041.51-3.11 1.473-2.731 2.46.758 1.978-6.607 10.648-9.044 10.648-.96 0-1.746.605-1.746 1.345 0 2.328-11.307 16.346-22.427 27.802l-10.698 11.022-.406 18.907c-.224 10.399-.072 20.689.336 22.866 1.1 5.866 9.56 13.708 19.984 18.524 4.99 2.305 14.082 7.436 20.205 11.4l16.13 10.448c4.823 3.123 5.492 3.438 8.04 3.78.643.086 1.525 1.28 1.96 2.656.438 1.375 1.53 2.5 2.429 2.5.898 0 7.47 3.84 14.603 8.533s14.938 9.302 17.344 10.243c2.406.94 5.8 2.585 7.542 3.654 1.742 1.07 5.047 3.07 7.345 4.445 2.298 1.375 9.31 6.195 15.583 10.71 6.273 4.516 14.076 9.86 17.34 11.876 3.265 2.015 5.937 4.23 5.938 4.92 0 .693 1.734 2.025 3.85 2.962 2.118.937 6.196 3.493 9.063 5.679 2.868 2.186 7.042 5.053 9.277 6.37 2.234 1.319 4.062 2.986 4.062 3.705 0 .72 4.502 4.286 10.004 7.925 5.502 3.639 10.825 8.205 11.83 10.147 1.004 1.942 4.645 5.557 8.09 8.032 4.248 3.052 6.03 5.113 5.537 6.4-.4 1.045-.106 1.97.655 2.055.76.086 1.85.227 2.417.313 3.76.568 40.826 36.783 42.243 41.27.457 1.45 4.874 7.43 9.814 13.29 4.94 5.86 10.026 12.33 11.302 14.376 1.276 2.046 3.29 4.845 4.476 6.22s3.82 5.533 5.855 9.24c2.033 3.706 5.478 9.05 7.655 11.875 7.958 10.324 10.616 15.266 11.5 21.385 1.296 8.959 1.77 10.72 3.145 11.662 3.933 2.696 11.443 20.718 9.209 22.1-.584.36-.362 2.005.494 3.654s1.438 5.296 1.295 8.104c-.143 2.808.184 5.105.727 5.105.543 0 .966 1.266.94 2.812-.076 4.327 1.518 23.604 2.298 27.813.844 4.55.927 6.6.664 16.25l-.205 7.5-2.445-3.125c-2.976-3.804-3.21-1.567-.496 4.728 1.107 2.566 1.932 7.595 1.843 11.23-.09 3.622.44 7.712 1.178 9.09.738 1.377.92 3.185.405 4.018-1.352 2.187-1.43 5.55-.27 11.758.684 3.658.52 6.556-.492 8.78-1.193 2.62-1.186 3.43.034 3.838 2.68.894 1.698 4.057-1.265 4.077-1.618.012-2.228.41-1.436.938 2.718 1.814 2.878 8.202.295 11.829-1.87 2.624-2.043 3.464-.72 3.464 1.994 0 1.977 4.518-.054 14.277-.704 3.383-.993 6.899-.643 7.812.35.914.094 1.66-.57 1.66-.664 0-1.506 4.786-1.87 10.635-.405 6.48-1.42 11.789-2.602 13.59-1.065 1.627-1.672 4.014-1.348 5.304.324 1.29-.29 6.847-1.363 12.347-1.073 5.5-2.5 13.306-3.168 17.346-2.22 13.393-7.088 24.843-10.295 24.209-.9-.18-1.394.76-1.19 2.267.457 3.34-5.445 16.679-7.774 17.572-.99.38-2.156 2.324-2.595 4.32-.438 1.998-1.316 3.953-1.95 4.345-.636.393-1.155 1.53-1.155 2.528 0 .999-1.174 4.314-2.61 7.368-1.435 3.054-2.224 6.177-1.752 6.94.47.763.01 2.336-1.024 3.496-1.035 1.16-2.482 4.359-3.215 7.109-.734 2.75-2.474 5.708-3.867 6.573-2.586 1.607-3.507 5.302-1.321 5.302 1.642 0 .025 4.12-2.123 5.413-1.726 1.038-4.66 6.912-4.302 8.612.104.495-.93 1.5-2.298 2.232-1.368.732-2.488 2.218-2.488 3.302s-3.797 5.883-8.437 10.664c-4.64 4.78-8.72 9.41-9.063 10.289-1.168 2.983-11.71 14.488-13.274 14.488-.857 0-1.887 1.04-2.29 2.31-.404 1.27-2.13 2.946-3.835 3.723-1.705.778-3.1 2.27-3.1 3.315 0 1.046-.5 1.902-1.108 1.902-.61 0-2.05 1.987-3.203 4.416-2.614 5.507-8.27 10.708-18.434 16.953-12.925 7.94-14.19 8.885-16.802 12.563-2.1 2.954-20.88 17.583-27.787 21.643-1.123.66-3.532 2.182-5.354 3.382-1.822 1.2-4.72 2.536-6.44 2.967-1.72.432-4.342 1.918-5.83 3.303-1.484 1.384-3.37 2.647-4.184 2.806-2.366.46-9.592 5-9.6 6.03 0 .515-1.442.937-3.194.937-2.84 0-7.18 1.704-14.94 5.867-1.375.738-4.114 2.1-6.086 3.028-1.972.928-4.785 2.952-6.25 4.5-1.465 1.546-3.017 2.82-3.45 2.833-.43.012-2.962.977-5.624 2.145-2.662 1.167-6.057 2.255-7.545 2.417-1.49.16-4.89 1.672-7.56 3.358-2.67 1.685-8.764 3.93-13.544 4.992-17.68 3.923-22.47 4.83-23.69 4.492-.688-.19-4.82.1-9.184.647-7.448.934-8.04 1.25-9.675 5.163-.958 2.292-1.384 5.1-.947 6.24.443 1.154.059 2.525-.87 3.099-1.155.714-1.282 1.535-.415 2.686 1.772 2.35 2.148 10.618.53 11.618-.746.46-1.032 1.36-.636 2 .395.64.016 1.165-.844 1.165-.901 0-.61.697.69 1.647 2.156 1.577 2.158 1.742.036 3.863-1.345 1.346-1.725 2.54-.967 3.04 1.475.973 3.135 6.739 1.682 5.84-.546-.336-1.36.647-1.81 2.186-1.335 4.562-1.71 14.674-.544 14.674 1.767 0 1.224 3.426-.877 5.526-1.075 1.075-1.55 2.61-1.053 3.414 1.283 2.075.746 11.322-.743 12.81-1.596 1.597-1.63 9.117-.047 10.095.756.468.69 2.002-.178 4.137-1.915 4.705-2.628 20.162-1.93 41.83.06 1.89.557 3.438 1.102 3.438 1.677 0-.495 8.033-2.594 9.598-1.78 1.326-1.75 1.56.282 2.349 1.287.499 1.966 1.64 1.577 2.654-.378.985-.131 1.438.553 1.015.68-.42 1.236.08 1.236 1.11 0 1.033-.572 2.23-1.27 2.66-.7.433-.947 1.31-.552 1.95.396.64-.108 1.164-1.12 1.164-2.333 0-1.932 2.937.819 5.976 2.462 2.72 2.8 5.415.622 4.96-1.004-.207-1.386 1.244-1.155 4.376.203 2.73-.215 4.688-.998 4.688-.74 0-1.346-.656-1.346-1.458 0-.802-.294-1.164-.654-.804-1.042 1.042.8 4.819 1.992 4.083.592-.366.79 2.028.443 5.32-.348 3.29-.765 7.42-.928 9.175-.163 1.755-1.527 4.512-3.031 6.127-3.013 3.233-2.69 5.332.656 4.26 1.557-.5 1.704-.37.536.47-1.2.863-1.287 2.013-.343 4.493 1.216 3.2-.136 4.77-1.796 2.084-.425-.688-1.302-1.25-1.95-1.25-.646 0-.05 1.125 1.325 2.5 2.638 2.638 3.36 6.25 1.25 6.25-1.8 0-1.543 3.423.312 4.176 1.013.41 1.123.997.313 1.666-.688.568-1.35 2.44-1.474 4.158-.123 1.719-.467 5.234-.763 7.812-.3 2.61.01 4.688.692 4.688.77 0 .95 3.865.48 10.312-.414 5.672-.765 11.05-.781 11.95-.016.915-.665 1.243-1.472.744-.93-.574-1.102-.34-.487.655 1.173 1.897 1.458 17.228.34 18.344-.441.443.31 1.72 1.67 2.838 2.464 2.023 2.464 2.054-.131 6.862-1.434 2.657-2.308 5.61-1.942 6.563.365.952.153 1.732-.472 1.732-.638 0-.993 6.714-.808 15.312.18 8.422-.154 16.67-.745 18.328-1.573 4.414.095 13.61 2.587 14.274 1.867.496 1.862.56-.047.69-2.141.149-2.226.903-2.183 19.478.01 2.727.676 5.368 1.489 5.87 1.056.653.913 1.13-.501 1.673-1.09.417-1.884 1.994-1.768 3.504.116 1.51-.202 3.94-.708 5.4-.505 1.46-.415 3.157.2 3.77.614.616.777 2.423.36 4.016-.485 1.853-1.083 2.37-1.66 1.436-.637-1.03-1.126-.878-1.663.52-.49 1.277-.077 1.979 1.166 1.979 1.363 0 1.81 1.003 1.528 3.437-.22 1.89-.894 3.797-1.5 4.236-.606.438-.646 1.535-.09 2.436 1.243 2.01 1.325 7.639.14 9.556-.48.777-.398 1.705.18 2.064.58.358.69 3.49.246 6.96-.445 3.47-.383 6.31.138 6.31.522 0 .884.985.806 2.188-.08 1.204.255 4.253.74 6.778.535 2.773.375 4.905-.404 5.386-1.552.96-1.732 5.649-.216 5.649.59 0 .855 4.078.59 9.062-.263 4.985-.604 18.907-.758 30.938-.163 12.798-.798 22.256-1.53 22.793-.787.58-.704.926.226.938 1.044.014 1.16 1.115.4 3.769-.591 2.062-.628 3.75-.08 3.75 1.178 0 .644 23.373-.61 26.609-.537 1.39-.025 3.16 1.357 4.687 1.475 1.63 1.692 2.454.647 2.454-1.138 0-1.428 1.904-1.048 6.875.317 4.135.024 6.875-.734 6.875-.693 0-.23.753 1.03 1.674 1.982 1.45 2.03 1.773.352 2.417-1.598.613-1.728 1.666-.747 6.032.653 2.91.743 5.618.198 6.02-.545.403-.93 9.732-.858 20.732.072 11-.678 29.75-1.668 41.665-.99 11.917-1.49 21.975-1.113 22.352.377.378.027 1.878-.78 3.335-.873 1.58-1.56 9.388-1.704 19.372-.134 9.307-.786 17.068-1.47 17.5-.69.436-1.075 5.292-.878 11.094.19 5.675-.138 10.619-.732 10.986-.594.367-.76 2.265-.37 4.217.39 1.952.116 4.656-.608 6.01-.812 1.517-.871 2.907-.155 3.624.717.716.064 3.332-1.702 6.822-1.576 3.112-2.635 6.35-2.353 7.196.282.845-.07 2.239-.784 3.098-.72.867-.843 2.298-.277 3.214.97 1.57-.223 6.964-2.591 11.702-.74 1.48-.604 2.188.417 2.188 1.175 0 1.177.333.01 1.5-.825.825-1.5 2.328-1.5 3.34 0 4.958-10.722 27.188-15.546 32.23-1.418 1.483-3.96 4.436-5.645 6.563-3.28 4.137-3.665 4.328-5.85 2.91zm10.296-31.186c1.094-3.764 1.767-8.75 1.495-11.081-.272-2.33-.104-4.387.373-4.57.477-.182 1.89-7.644 3.143-16.582 1.252-8.937 2.736-16.576 3.297-16.975.56-.398.66-1.664.22-2.812-.441-1.148-.39-3.072.116-4.275.504-1.203 1.099-5.563 1.32-9.688.509-9.463 2.764-24.846 4.522-30.844.74-2.527 1.046-5.378.678-6.336-.367-.957-.271-3.952.213-6.655.484-2.703.502-6.724.04-8.935-.462-2.212-.502-4.36-.09-4.773.414-.414.799-10.417.854-22.23.068-14.341.608-22.411 1.626-24.29.838-1.546 1.014-2.812.39-2.812-.623 0-1.075-2.25-1.002-5 .072-2.75.622-5 1.223-5 .6 0 .674-.984.162-2.187-1.49-3.5-1.842-10.313-.534-10.313 1.874 0 1.408-3.63-.99-7.712-2.113-3.596-2.103-3.786.306-5.555 1.654-1.215 2.026-2.13 1.106-2.72-2.116-1.353-3.266-6.185-1.703-7.152.775-.478 1.052-2.316.636-4.213-.407-1.85-.98-8.687-1.274-15.193-.294-6.506-.936-16.892-1.427-23.08-.491-6.187-.8-17.548-.687-25.246.12-8.13-.312-14.316-1.031-14.76-1.708-1.056-1.558-6.05.236-7.844 1.133-1.133 1.128-2.132-.021-4.312-.98-1.86-1.285-6.5-.884-13.463.919-15.947 1.673-23.572 2.458-24.842.388-.628-.16-3.216-1.22-5.752-1.846-4.418-1.82-4.637.66-5.285 1.903-.498 2.243-1.09 1.286-2.241-.823-.992-1.04-6.547-.595-15.16.61-11.766.859-48.767.377-56.095-.09-1.375-.782-2.91-1.537-3.414-.956-.635-.708-2.093.814-4.788 1.203-2.132 2.187-5.686 2.187-7.9 0-2.212.64-4.662 1.42-5.442 1.06-1.06.866-1.974-.764-3.603-1.854-1.855-1.917-2.384-.415-3.518 1.242-.938 1.779-4.124 1.804-10.71.019-5.156.372-11.756.784-14.666.413-2.91.224-5.617-.42-6.015-.642-.397-.888-1.953-.545-3.458.343-1.505.867-4.986 1.166-7.736.298-2.75.627-5 .73-5 .334 0 .889-9.452 1.765-30 .77-18.106.92-24.347.735-30.937-.146-5.187.38-8.532 1.447-9.19.63-.39.803-1.786.385-3.103-.528-1.664-.163-2.395 1.2-2.395 1.077 0 1.958-.562 1.958-1.25 0-.687-.826-1.25-1.836-1.25-1.071 0-1.552-.738-1.155-1.774.375-.976-.13-3.085-1.122-4.687-2.144-3.466-2.91-26.04-.882-26.04.757 0 .638-1.005-.295-2.5-1.176-1.882-1.213-3.056-.15-4.757.823-1.32 1.225-5.867.966-10.937-.244-4.774.089-11.492.739-14.93.65-3.437 1.468-10.187 1.817-15 .35-4.812.903-10.72 1.23-13.125 1.493-10.955 1.84-22.5.676-22.5-2.186 0-1.322-3.574 1.498-6.201 1.505-1.402 2.19-2.55 1.524-2.55-1.734 0-.78-19.06 1.009-20.165 1.09-.674 1.085-1.328-.026-2.666-.81-.975-1.161-2.083-.782-2.462 1.154-1.154 1.44-26.024.306-26.725-.582-.36-.627-1.318-.1-2.13.527-.812 1.105-4.57 1.285-8.35.592-12.423.96-14.388 2.626-14.032.99.21 1.24-.25.656-1.198-1.452-2.348-1.714-17.664-.33-19.33.704-.85.744-1.76.095-2.162-.617-.381-.88-2.822-.581-5.423.297-2.602.713-10.918.924-18.48.32-11.542 1.584-34.668 2.066-37.845.076-.498.03-1.187-.098-1.53-1.163-3.083-.684-15.007.712-17.742 1.099-2.152 1.268-3.646.47-4.14-.83-.512-.828-1.556.01-3.12.796-1.486.817-2.62.058-3.088-.66-.407-.882-1.567-.494-2.576.403-1.05-.02-1.851-.992-1.873-1.243-.028-1.17-.346.272-1.19 1.608-.94 1.907-3.27 1.632-12.723-.185-6.364-.66-12.86-1.055-14.435-.465-1.854-.16-2.87.868-2.883 1.25-.015 1.243-.237-.04-1.05-.893-.567-1.603-2.105-1.578-3.418.085-4.407.014-6.114-.451-10.825-.255-2.578-.053-4.688.45-4.688 1.14 0 .54-16.994-.67-18.95-.588-.953-.33-1.092.769-.413 1.263.78 1.408.456.61-1.37-.574-1.315-1.141-5.396-1.26-9.068-.117-3.672-.744-7.047-1.391-7.5-1.402-.98-1.518-13.933-.145-16.05.527-.812.382-1.832-.323-2.268-.77-.475-1.033-4.014-.662-8.85 1.157-15.052 2.112-56.016 2.32-99.462.19-39.551.4-43.52 2.426-45.76 1.855-2.048 1.939-2.683.51-3.87-.94-.78-2.08-1.047-2.531-.595-.453.453-.891-3.068-.975-7.823-.084-4.755-.224-11.37-.312-14.701-.088-3.33.262-6.318.78-6.64.517-.32.5-1.532-.038-2.693-.538-1.162-.854-8.018-.701-15.237.5-23.658.218-31.194-1.256-33.492-.57-.89-.553-2.296.038-3.125.87-1.22 1.19-48.69.344-50.883-.133-.344-.15-1.56-.037-2.702.112-1.142-.303-2.39-.922-2.772-.62-.383-.958-4.37-.752-8.86.206-4.492-.043-8.166-.552-8.166-.51 0-.847-3.375-.75-7.5.096-4.125-.3-7.5-.883-7.5-1.433 0-1.266-22.294.248-33.125 2.268-16.225 2.75-31.875 1.048-33.927-1.265-1.525-1.233-2.095.168-2.96.954-.59 2.183-.796 2.732-.457 2.09 1.292.885-1.56-1.336-3.16-1.911-1.378-2.151-2.49-1.327-6.145.554-2.455.71-4.943.348-5.53-.363-.586-.252-2.023.246-3.193 1.182-2.777 1.117-14.6-.09-16.553-.516-.835-.912-9.46-.88-19.167.035-10.017-.458-17.97-1.14-18.392-.747-.461-.635-1.987.296-4.03 1.137-2.496 1.149-3.707.048-5.033-1.118-1.347-1.023-2.1.415-3.293 1.34-1.113 1.526-2.178.662-3.793-.791-1.478-.721-3.624.205-6.281 1.194-3.425 1.088-4.215-.701-5.216-1.306-.731-1.834-2.047-1.387-3.456.397-1.252-.658-5.397-2.345-9.211-2.14-4.84-2.625-7.118-1.605-7.537 1.11-.456 1.113-.85.01-1.64-.8-.572-1.477-3.568-1.505-6.658-.028-3.09-.29-7.587-.58-9.993-2.068-17.075-2.288-22.228-.981-23.035 2.01-1.242 1.72-3.261-.353-2.465-.962.369-2.12.07-2.574-.665-.454-.734-2.2-1.335-3.877-1.335-1.678 0-3.05-.484-3.05-1.076 0-.592-2.532-2.42-5.626-4.06-3.094-1.642-5.625-3.407-5.625-3.924 0-.517-1.047-.94-2.326-.94-2.41 0-11.733-5.722-12.466-7.652-.23-.604-1.494-1.098-2.812-1.098-1.318 0-2.396-.54-2.396-1.2 0-.661-2.812-1.083-6.25-.938-3.437.145-6.25.624-6.25 1.065 0 .44-1.266 1.127-2.813 1.524-1.546.397-5.062 2.747-7.812 5.222-2.75 2.474-7.09 6.073-9.646 7.997-2.555 1.924-4.29 3.854-3.854 4.289.436.435.16.79-.61.79-1.708 0-7.122 5.273-8.141 7.929-.407 1.06-2.09 2.81-3.738 3.89-1.65 1.08-5.927 4.658-9.505 7.948-5.192 4.773-6.63 6.96-7.108 10.823-.377 3.044-.036 5.19.92 5.78 1.194.738 1.194 1.334 0 2.77-1.632 1.967-.77 11.57 1.273 14.17.62.79.988 3.498.819 6.017-.17 2.519.282 4.966 1.005 5.44.723.472 1.676 2.718 2.118 4.99.732 3.757.45 4.278-3.106 5.774-2.576 1.083-3.316 1.88-2.17 2.337 1.114.443 1.29 1.065.49 1.726-1.625 1.343-2.18 9.493-.578 8.503.662-.41 1.204.663 1.204 2.382 0 1.718-.563 3.472-1.25 3.897-.688.425-1.26.036-1.27-.864-.014-1.205-.325-1.15-1.184.206-1.196 1.89.789 4.187 2.634 3.047.508-.314.78.988.603 2.895-.187 2.018-.98 3.323-1.895 3.123-.866-.19-1.212.242-.77.958.442.715 1.328.977 1.968.582 1.582-.978 1.48 6.502-.13 9.51-1.03 1.924-.884 2.418.71 2.418 1.367 0 1.88.898 1.608 2.813-.22 1.547-1.056 2.812-1.858 2.812-2.76 0-3.1 1.648-.51 2.47 2.733.868 3.45 2.66 1.348 3.364-1.748.584-1.962 10.756-.343 16.292.76 2.6.944 6.44.418 8.77-1.172 5.2-.361 30.332 1.14 35.354 1.424 4.757 1.346 16.687-.114 17.59-1.915 1.183-1.293 5.529.683 4.77 1.227-.47 2.156.645 2.959 3.553 1.385 5.015 1.485 28.6.119 27.754-1.825-1.127-2.562 2.09-.93 4.058 1.845 2.222 2.368 17.9.598 17.9-.6 0-.355.887.545 1.97 1.285 1.55 1.305 2.174.094 2.923-1.177.728-1.085 1.332.392 2.558 1.064.883 1.935 3.19 1.935 5.128 0 1.938.585 3.885 1.3 4.328.716.442.93 1.975.475 3.408-1.257 3.96-1.44 18.87-.25 20.483.576.782.524 3.876-.116 6.875-.644 3.02-.745 9.914-.225 15.452 1.597 17 1.562 42.466-.062 46.03-1.195 2.622-1.11 4.016.437 7.21 1.055 2.18 1.73 5.717 1.498 7.86-.231 2.146-.377 10.93-.325 19.525.053 8.594-.027 21.697-.177 29.117-.213 10.558.16 14.15 1.71 16.519 1.09 1.664 1.984 4.697 1.984 6.739s.494 5.015 1.097 6.606c.603 1.592 1.44 6.63 1.863 11.198.42 4.567 1.128 9.348 1.57 10.625.733 2.109.607 2.092-1.37-.18-2.095-2.41-2.104-2.38-.25.77 1.438 2.438 1.567 3.63.509 4.688-1.058 1.058-1.011 1.418.185 1.418.883 0 1.352.703 1.044 1.563-.308.86-.05 2.555.575 3.768.624 1.212.688 2.13.143 2.04-2.518-.422-2.884.29-1.08 2.093 2.57 2.57 2.494 4.286-.19 4.286-1.807 0-1.724.3.516 1.87 3.36 2.352 2.94 5.757-.973 7.92-2.91 1.609-2.916 1.646-.201 1.056 1.547-.337 2.812-.102 2.812.52 0 .624-.703 1.143-1.562 1.153-1.234.015-1.238.226-.02 1 .85.54 1.923 2.875 2.386 5.19.719 3.592.538 4.094-1.23 3.415-2.774-1.064-2.763 2.366.01 3.92 1.4.783 2.073 2.754 2.046 5.999-.085 9.984-.18 10.267-3.193 9.612-2.605-.567-2.582-.487.313 1.085 1.718.934 3.3 2.918 3.515 4.41.336 2.333-.086 2.626-3.016 2.095-2.803-.508-3.151-.31-1.964 1.12.794.958 1.073 2.11.62 2.563-.452.452.584.822 2.303.822 1.719 0 3.189.703 3.266 1.563.078.86.529 3.964 1.002 6.9.783 4.863.65 5.265-1.496 4.52-2.227-.775-2.235-.725-.141.914 2.542 1.99 3.333 10.43 1.18 12.585-1.021 1.02-.9 2.338.452 4.954 1.014 1.96 1.357 3.564.763 3.564-.593 0-1.157 2.068-1.252 4.596-.095 2.527-.89 5.05-1.765 5.605-1.22.774-1.153 1.018.283 1.04 1.03.016 2.525 1.43 3.32 3.144.794 1.713.974 3.115.4 3.115-.575 0-.65 1.547-.163 3.438 1.357 5.284.352 10.302-2.078 10.378-1.694.053-1.555.448.708 2.027 3.367 2.349 3.628 4.124.625 4.245-1.79.07-1.847.242-.312.938 2.152.975 2.21 1.2 2.504 9.6.53 15.19 0 23.274-1.467 22.368-1.03-.636-1.175-.195-.495 1.489 2.42 5.98 3.163 9.907 1.952 10.31-.693.232-.898 1.006-.456 1.72.442.717.983 3.34 1.203 5.832.22 2.492.626 6.92.904 9.843.277 2.922-.013 5.312-.644 5.312-.632 0-.754.64-.271 1.42 1.195 1.934 1.38 28.674.204 29.4-.518.32-.432 1.532.19 2.694.62 1.162.86 6.33.53 11.487-1.015 15.9-1.083 60-.091 60 .515 0 .937 1.405.937 3.124s-.545 3.125-1.21 3.125c-.667 0-.903.804-.526 1.787 1.228 3.198 1.27 23.793.052 25.438-.768 1.038-.613 2.792.444 5 2.11 4.41 2.924 32.62 1.007 34.93-1.06 1.276-.92 1.48.613.89 1.66-.636 1.91.12 1.536 4.66-.247 2.98-.863 7.06-1.37 9.063-.767 3.038-.587 3.515 1.088 2.873 1.73-.665 1.81-.336.569 2.387-1.095 2.402-1.082 3.73.054 5.548 2.048 3.28 1.874 4.075-.695 3.18-1.914-.667-1.95-.566-.28.804 1.054.865 1.892 3.496 1.875 5.884-.018 2.375.604 5.544 1.38 7.043 1.53 2.948.91 4.73-2.037 5.852-1.562.595-1.532.73.178.813 1.13.054 2.39.97 2.799 2.038.427 1.113.217 1.614-.492 1.176-1.697-1.048-1.553 1.41.25 4.299 1.074 1.716 1.123 3.193.179 5.295-.894 1.99-.906 3.806-.04 5.722 1.049 2.315.744 3.28-1.74 5.507-1.96 1.759-2.27 2.437-.886 1.945 3.586-1.277 5.78 8.38 2.359 10.38-1.79 1.047-1.782 1.164.073 1.198 1.695.03 1.885.794 1.083 4.35-.535 2.372-.64 4.645-.235 5.05.405.406-.504 1.062-2.021 1.459-2.635.689-4.07 5.43-1.642 5.43 1.665 0 2.558 3.147 1.76 6.2-.41 1.56-1.396 2.425-2.352 2.059-1.046-.402-1.393.029-.952 1.179.383.996 1.198 1.81 1.812 1.81 1.943 0 1.217 2.027-1.95 5.444-1.685 1.819-2.562 3.307-1.948 3.307.614 0 1.494-.611 1.956-1.36.584-.943 1.238-.96 2.146-.052.908.908.868 1.834-.13 3.037-.79.95-1.05 2.118-.575 2.59 1.316 1.317 1.56 17.148.252 16.339-.624-.386-1.135-.166-1.135.489 0 .654.867 1.522 1.926 1.929 1.597.613 1.92 3.459 1.894 16.696-.035 17.485.804 60.957 1.177 60.957.128 0 .455 7.875.727 17.5.272 9.625.55 18.063.616 18.75.067.688-.804 5.453-1.934 10.59-1.49 6.768-1.703 10.11-.778 12.143.77 1.69.819 3.087.122 3.517-.635.393-.91 2.803-.611 5.357 1.69 14.44 3.072 29.876 3.659 40.893.365 6.875 1.192 14.678 1.836 17.34.644 2.66.895 5.557.558 6.435-.337.879-.013 1.969.723 2.423 2.032 1.256 1.595 4.587-.836 6.364-1.997 1.46-2.01 1.77-.166 3.888 1.99 2.285 2.092 4.722.419 10.113-.522 1.68-.347 2.812.433 2.812.72 0 1.207 1.912 1.084 4.249-.123 2.337-.646 3.99-1.161 3.676-.516-.315-.938.04-.938.79s.808 1.674 1.796 2.053a1.925 1.925 0 0 1 1.11 2.477c-.377.983-.033 2.574.765 3.535.798.96.953 2.055.345 2.43-.921.57-1.083 5.684-.214 6.728.143.172.356 1.015.474 1.875.117.86.985 1.39 1.93 1.18 1.447-.324 1.45-.063.024 1.657-1.43 1.723-1.415 2.22.1 3.195 1.556 1 1.552 1.31-.03 2.329-1.576 1.013-1.533 1.497.312 3.536 2.442 2.698 2.802 5.29.735 5.29-.982 0-1.013.47-.103 1.566.916 1.104.788 2.265-.432 3.934-.953 1.303-1.435 2.848-1.073 3.434.362.587-.218 1.066-1.29 1.066s-1.95.563-1.95 1.25c0 .688.597 1.25 1.325 1.25s1.006.515.617 1.143c-.39.63-.117 1.34.604 1.58.72.24 1.528 3.1 1.793 6.357.38 4.662.08 5.92-1.407 5.92-1.04 0-1.643.703-1.343 1.563.3.86 1.472 1.397 2.604 1.195 2.577-.46 2.8 4.354.367 7.902-1.998 2.913-2.21 6.843-.485 9.028.846 1.072.747 1.562-.317 1.562-1.023 0-1.262.954-.703 2.813.465 1.547 1.124 4.78 1.465 7.187.34 2.406 1.122 5.922 1.735 7.813.748 2.304.675 3.437-.222 3.437-.854 0-.775.679.218 1.875 1.254 1.512 1.224 1.883-.16 1.915-1.37.03-1.34.346.16 1.567 1.677 1.366 2.135 2.332 2.648 5.58.378 2.395-.253 4.146-1.267 3.52-.615-.381-1.442.148-1.836 1.175-.394 1.028-.16 1.868.518 1.868.71 0 .882 1.404.404 3.312-.585 2.33-.407 3.049.6 2.426.843-.52 1.433-.082 1.433 1.063 0 1.072-.562 1.95-1.25 1.95-.687 0-1.25.843-1.25 1.874 0 1.03.472 1.875 1.05 1.875 1.917 0 3.879 5.82 2.445 7.255-.797.797-.924 2.698-.323 4.84.543 1.942.869 4.033.723 4.647-.145.614.296 2.724.98 4.688.812 2.328.818 3.57.016 3.57-.797 0-.79.822.023 2.34 1.152 2.152 1.555 7.268 1.194 15.16-.08 1.719.099 5.222.395 7.785.296 2.563 0 4.838-.648 5.055-.703.234-.347 4.532.872 10.55 1.132 5.585 1.976 13.92 1.876 18.52-.118 5.484.353 8.695 1.37 9.323.892.552 1.694 4.203 1.888 8.593.185 4.2-.106 7.36-.646 7.028-.54-.334-.687.519-.327 1.894.455 1.74.039 2.502-1.367 2.502-2.39 0-2.604 1.416-.527 3.494.822.822 1.624 4.953 1.782 9.18.158 4.229.926 8.083 1.707 8.565.78.483 1.975 5.042 2.655 10.132.68 5.09 2.357 12.559 3.726 16.598 1.37 4.039 2.19 7.643 1.824 8.01-.366.366-.09 1.362.617 2.212.706.85 1.15 2.027.986 2.615-.163.588.5 4.076 1.473 7.75l1.77 6.683 2.24-2.768c1.234-1.523 3.138-5.848 4.233-9.613zm-48.751-610.02c-1.27-1.27-2.32.643-1.277 2.33.788 1.274 1.082 1.275 1.506 0 .29-.868.186-1.92-.23-2.334zm.495-27.08c0-.27-.873-.825-1.94-1.235-1.113-.427-1.614-.217-1.177.492.735 1.187 3.117 1.756 3.117.744zm-4.147-59.741c-.4-.997-.695-.701-.755.755-.054 1.318.24 2.056.657 1.64.415-.415.46-1.493.099-2.395zm112.67-132.702c-.866-.927-2.686-1.395-4.045-1.04-2.435.637-2.436.66-.037 1.598 4.175 1.634 5.908 1.397 4.082-.558zm-134.927-8.518c2.55-.948 2.873-1.708 2.282-5.353-.46-2.837-.157-4.452.913-4.863 1.608-.617 3.863-7.861 3.177-10.205-.87-2.977-.498-28.125.418-28.125.556 0 .594-.675.085-1.5-1.162-1.88-1.216-2.49-2.284-26-.484-10.656-1.171-20.22-1.528-21.25-1.32-3.82-1.705-47.324-.425-48.115.696-.43 1.266-1.345 1.266-2.032 0-.688-.61-.873-1.356-.413-.902.558-1.253-.777-1.05-3.988.167-2.655-.298-7.92-1.033-11.702-1.477-7.588-1.47-17.5.012-17.5.52 0 .24-1.142-.625-2.538-1.3-2.098-1.248-2.752.3-3.774 1.628-1.071 1.564-1.474-.477-3.033-2.011-1.537-2.176-2.493-1.137-6.586.927-3.655.816-5.161-.471-6.364-1.273-1.188-1.355-2.195-.336-4.1 1.033-1.93.892-3.222-.6-5.5-1.072-1.635-1.622-3.827-1.221-4.871 1.1-2.868 1.254-18.236.182-18.235-.515 0-.926-1.827-.913-4.061.014-2.235-.035-5.188-.108-6.563a52.442 52.442 0 0 1 .023-5c.44-7.084-1.541-20.352-3.622-24.256-.906-1.7-.945-9.422-.057-11.37.336-.735.376-.214-.684-8.81-.463-3.748-.994-10.751-1.182-15.564-.187-4.812-.95-11.32-1.697-14.46-.747-3.141-1.18-8.897-.964-12.791.216-3.894.072-7.4-.32-7.792-.39-.392-.78-3.966-.863-7.943-.083-3.977-.664-8.026-1.29-8.998-1.567-2.434-1.51-15.31.075-16.418.792-.555.25-1.633-1.404-2.8-2.38-1.676-2.632-2.806-2.173-9.722.313-4.724-.083-8.973-1-10.72-1.24-2.363-1.185-3.108.298-4.062 1.583-1.018 1.576-1.342-.058-2.514-1.42-1.018-1.493-1.5-.304-1.982.863-.35 1.193-1.246.732-1.992-.54-.872-.068-1.06 1.32-.527 1.897.727 1.857.402-.328-2.665-2.154-3.026-2.595-6.33-3.292-24.68-.442-11.651-1.028-23.434-1.302-26.184-.273-2.75-.85-9.5-1.284-15-.433-5.5-.962-10.183-1.175-10.406-.213-.224.084-2.052.66-4.063.577-2.01.666-3.656.199-3.656-1.065 0-.728-13.176.384-14.974.45-.73.138-3.385-.693-5.904-1.415-4.288-1.304-4.758 1.75-7.384 1.867-1.606 2.645-3.01 1.822-3.283-.906-.302-1.07-1.378-.443-2.905.65-1.584 1.199-1.88 1.582-.855.79 2.116 2.877.685 2.853-1.956-.013-1.333-.358-1.6-.937-.722-.56.847-1.897 1.004-3.42.4-1.374-.545-1.99-1.03-1.367-1.08.622-.048.214-1.1-.907-2.34-1.12-1.237-2.066-3.91-2.1-5.936-.034-2.027-.228-8.945-.43-15.374-.278-8.796.04-11.845 1.28-12.321 2.2-.845 2.106-4.02-.145-4.883-.988-.38-1.478-1.52-1.09-2.533.39-1.014 1.509-1.536 2.487-1.16.978.374 1.458.163 1.066-.47-1.521-2.462-2.82-12.638-1.7-13.33.665-.41.52-1.476-.342-2.515-1.194-1.438-1.017-2.17.877-3.615 1.634-1.25 1.934-2.111.964-2.774-.775-.528-1.444-2.648-1.487-4.71-.043-2.063-.37-8.103-.722-13.423-.455-6.838-.117-10.93 1.15-13.966 1.388-3.32 1.446-4.41.257-4.807-1.146-.382-1.576-7.104-1.685-26.33-.171-30.433-.731-32.244-7.868-25.434-2.467 2.355-5.05 4.07-5.736 3.81-.688-.26-11.938 8.303-25 19.027-13.063 10.724-24.594 19.813-25.625 20.198-1.032.384-2.864 1.715-4.072 2.957-1.208 1.24-2.946 1.97-3.862 1.618-2.191-.841-5.042 2.664-3.85 4.732.515.89.502 1.228-.026.753-1.213-1.091-11.928 9.036-11.935 11.28 0 .918-.708 1.42-1.568 1.12-.86-.302-3.374 1.294-5.59 3.547-2.214 2.252-5.015 4.286-6.223 4.518-1.21.233-2.764 2.106-3.457 4.16-.693 2.057-1.605 4.02-2.026 4.364-.422.344-1.433 1.89-2.248 3.438-.815 1.547-2.265 2.812-3.223 2.812-.958 0-2.51.703-3.446 1.563-.938.86-2.581 2.125-3.653 2.812-14.18 9.1-15.01 9.896-18.584 17.813-1.32 2.922-2.84 5.314-3.38 5.317-.54 0-2.67 3.232-4.732 7.176-3.941 7.538-6.018 10.315-7.723 10.325-.565 0-3.403 3.52-6.307 7.813-2.904 4.293-7.826 10.595-10.938 14.004-3.111 3.408-5.657 6.826-5.657 7.594 0 .769-1.344 2.66-2.986 4.203-1.643 1.543-3.301 4.313-3.686 6.155-.385 1.843-2.135 4.873-3.89 6.733-1.753 1.86-3.19 4.218-3.19 5.239 0 1.02-.49 2.16-1.091 2.53-.6.372-2.512 3.64-4.247 7.262-1.736 3.622-4.197 7.733-5.47 9.135-1.274 1.402-2.468 3.37-2.655 4.375-.187 1.004-1.711 5.2-3.388 9.326-1.677 4.125-3.927 11.384-5 16.13-1.073 4.747-3.165 11.215-4.65 14.375-4.586 9.763-8.476 31.253-9.013 49.798-.164 5.667-.678 10.683-1.141 11.146-1.297 1.296-1 4.42.34 3.592.719-.444 1.003 2.603.72 7.738-.254 4.66-.826 16.909-1.27 27.22-.94 21.847-1.335 25.722-2.731 26.747-1.486 1.09-1.604 16.859-.133 17.783.8.502.719 1.75-.227 3.517-1.123 2.098-1.12 3.155.01 4.518.813.979 1.177 2.562.81 3.519-.367.956-.18 3.902.417 6.546.633 2.805.616 5.098-.04 5.503-1.65 1.02-1.952 9.49-.407 11.442.73.922 1.39 2.52 1.468 3.55.567 7.518 1.012 9.574 2.387 11.028.86.908 1.61 2.877 1.667 4.375.057 1.498.245 3.989.416 5.536.172 1.547-.176 2.812-.773 2.812s-.505 1.084.204 2.41c.71 1.325.929 3.35.487 4.5-.45 1.17-.08 2.54.838 3.106.902.558 1.64 2.75 1.64 4.874 0 2.123.47 3.86 1.042 3.86.573 0 1.06 2.39 1.082 5.313.022 2.922.868 6.408 1.88 7.747 1.013 1.339 1.52 3.448 1.126 4.687-.393 1.24-.14 2.253.563 2.253 1.298 0 3.394 8.083 2.836 10.938-.167.86.606 1.562 1.72 1.562 1.453 0 1.93.969 1.697 3.438-.232 2.44.839 4.664 3.692 7.67 2.21 2.33 3.69 4.564 3.29 4.965-.402.4-1.232-.08-1.844-1.073-.613-.991-1.437-1.48-1.83-1.086-.395.394 1.293 4.783 3.75 9.754 3.258 6.594 4.109 9.467 3.147 10.626-.97 1.168-.477 2.498 1.853 5.01 1.744 1.884 4.125 4.919 5.29 6.747 1.167 1.828 3.125 4.066 4.35 4.972 1.228.907 1.933 2.132 1.567 2.723-.365.59.47 1.434 1.855 1.873 1.385.44 2.518 1.324 2.518 1.965 0 .642 1.095 2.26 2.433 3.6 3.589 3.588 6.407 9.626 5.544 11.876-.53 1.38-.204 1.757 1.089 1.26 1.297-.497 2.068.413 2.599 3.067.506 2.534 2.339 4.823 5.575 6.965 5.956 3.94 9.3 8.457 11.275 15.223 1.898 6.504 16.429 21.448 24.58 25.28 6.305 2.964 17.324 11.065 27.2 20 6.215 5.623 13.937 10.062 20.955 12.048 1.718.487 4.25 1.886 5.625 3.11 4.045 3.6 11.07 7.477 13.557 7.483 1.269 0 3.86 1.11 5.762 2.464 1.9 1.353 8.315 4.22 14.255 6.369 5.94 2.149 10.8 4.296 10.8 4.772 0 .942.885 1.108 11.563 2.167 3.953.393 7.188 1.186 7.188 1.764 0 1.313 4.953 3.043 7.62 2.662 1.099-.158 2.71.573 3.58 1.623.915 1.1 2.716 1.643 4.255 1.28 1.468-.346 4.357-.11 6.42.526 3.838 1.184 10.18.64 15.47-1.327zm-26.721-587.296c.424-.687 1.02-1.25 1.323-1.25.304 0 .552.563.552 1.25 0 .688-.596 1.25-1.324 1.25-.728 0-.976-.562-.551-1.25zm-10 585c-.425-.687-1.617-1.25-2.648-1.25-1.031 0-1.527.563-1.102 1.25.424.688 1.616 1.25 2.647 1.25 1.03 0 1.527-.562 1.103-1.25zm177.5-3.48a6057.81 6057.81 0 0 1 15.625-3.316c12.402-2.612 23.9-5.373 28.75-6.904 2.406-.76 6.765-1.25 9.686-1.09 2.92.16 5.986-.383 6.812-1.21.826-.824 2.33-1.5 3.34-1.5 1.012 0 2.728-.8 3.813-1.776 1.086-.977 2.795-1.962 3.8-2.188 1.762-.397 3.448-1.464 6.654-4.214 2.133-1.828 8.707-4.407 11.84-4.643 1.447-.108 2.385-.597 2.083-1.086-.77-1.244 13.268-9.843 16.069-9.843 1.265 0 2.023-.45 1.684-.997-1.143-1.85 1.053-3.52 10.853-8.26 5.368-2.594 11.362-6.285 13.32-8.2 1.96-1.914 7.41-5.011 12.116-6.881 7.41-2.947 9.223-4.335 13.555-10.381 2.75-3.84 7.365-9.551 10.256-12.693 2.89-3.142 6.153-6.726 7.25-7.964 1.276-1.44 2.887-1.97 4.465-1.468 1.95.619 2.75-.024 3.808-3.061.825-2.366 2.203-3.845 3.582-3.845 1.413 0 2.549-1.272 3.07-3.437.455-1.89 2.495-5.125 4.533-7.188 4.604-4.657 14.725-17.757 20.766-26.875 2.505-3.781 6.994-10.066 9.975-13.967 2.98-3.901 5.42-7.513 5.42-8.027 0-.514.883-1.91 1.963-3.103 1.08-1.193 2.783-5.31 3.786-9.15 1.002-3.84 3.46-9.963 5.46-13.61 2.002-3.646 4.769-10.542 6.15-15.324 1.38-4.782 3.359-10.944 4.396-13.694s1.91-5.88 1.94-6.953c.03-1.074 1.18-4.28 2.555-7.127 1.375-2.846 2.507-5.904 2.516-6.797.01-.893 1.127-5.167 2.485-9.498 1.358-4.332 2.55-9.676 2.65-11.875.1-2.2 1.172-8.781 2.383-14.625 1.21-5.844 2.868-14.562 3.68-19.375.815-4.812 1.778-9.594 2.142-10.625.845-2.392.695-77.104-.173-86.25-.36-3.781-1.21-10.746-1.89-15.478-.68-4.731-.881-9.178-.447-9.88.435-.703.2-.913-.522-.467s-1.685-.16-2.14-1.346c-.455-1.186-.233-2.354.494-2.597 1.973-.657 1.595-5.95-.553-7.732-1.247-1.035-1.875-3.837-1.875-8.365 0-4.796-1.16-9.593-3.922-16.23-2.923-7.02-3.533-9.66-2.395-10.363 1.13-.698 1.01-1.142-.454-1.704-1.088-.417-1.98-1.514-1.98-2.436 0-.923-1.71-3.426-3.8-5.563-3.313-3.39-3.513-3.96-1.561-4.468 1.743-.453 1.617-.613-.576-.726-1.547-.08-2.897-.99-3-2.02a210.996 210.996 0 0 1-.312-3.437c-.07-.86-.6-1.91-1.178-2.333-.578-.423-1.34-2.954-1.692-5.625-.352-2.67-1.213-5.558-1.913-6.417-.7-.86-.848-1.563-.327-1.563.52 0-.555-1.181-2.391-2.625-2.31-1.818-3.108-3.353-2.59-4.986.493-1.55-.27-3.33-2.218-5.187-1.632-1.555-3.69-4.615-4.57-6.8-1.713-4.25-5.121-6.572-5.121-3.488 0 1.01-.552 1.836-1.227 1.836-1.224 0-2.133-2.845-2.797-8.75-.193-1.72-.914-3.76-1.601-4.534-.688-.775-2.078-2.603-3.09-4.063-1.01-1.46-2.35-2.653-2.977-2.653-1.237 0-5.808-4.873-5.808-6.191 0-.445.703-1.566 1.562-2.492 1.257-1.354 1.24-1.5-.084-.75-1.083.615-1.881.037-2.333-1.691-.378-1.444-1.175-2.626-1.772-2.626-.596 0-6.891-5.906-13.99-13.125-7.096-7.22-13.536-13.125-14.31-13.125-.772 0-1.734-1.036-2.135-2.302-.774-2.436-5.305-7.114-9.14-9.434a2341.37 2341.37 0 0 1-6.388-3.89c-2.252-1.374-7.24-5.443-11.082-9.042-3.844-3.6-8.022-6.872-9.284-7.272-1.262-.4-2.294-1.303-2.294-2.005 0-.703-2.11-3.523-4.688-6.268-2.578-2.746-4.56-5.467-4.405-6.048.155-.58-1.392-1.797-3.438-2.703-2.045-.905-3.72-2.353-3.72-3.216s-.427-1.57-.95-1.57c-.522 0-2.35-1.265-4.062-2.812-1.712-1.547-4.67-3.617-6.574-4.6-2.36-1.218-2.977-2.085-1.94-2.726.994-.614.35-1.234-1.855-1.787-1.856-.466-4.744-2.474-6.416-4.461-1.673-1.988-3.64-3.614-4.371-3.614-.732 0-1.331-.507-1.331-1.126 0-.62-1.97-2.288-4.375-3.708-2.406-1.42-4.375-3.392-4.375-4.382 0-1.12-.853-1.577-2.254-1.21-2.307.603-15.073-7.153-16.816-10.217-.52-.913-3.754-2.594-7.187-3.734-3.434-1.14-6.243-2.62-6.243-3.287 0-.667-1.873-1.996-4.162-2.952-2.29-.957-4.89-2.616-5.778-3.687-.89-1.07-2.214-1.947-2.944-1.947-2.504 0-12.318-5.32-12.976-7.035-.362-.943-2.225-1.715-4.14-1.715-1.97 0-3.8-.83-4.215-1.908-.403-1.05-3.405-3.053-6.671-4.454-3.267-1.4-6.242-3.036-6.613-3.635-.37-.6-2.184-1.292-4.03-1.54-1.847-.247-4.432-1.69-5.746-3.204-1.314-1.515-4.14-3.104-6.28-3.532-2.14-.428-4.533-1.554-5.32-2.502-1.882-2.268-5.43-2.195-7.375.15-1.272 1.533-1.194 1.875.426 1.875 1.707 0 1.89 1.48 1.322 10.625-.566 9.09-.38 10.625 1.295 10.625 1.076 0 1.957.563 1.957 1.25 0 .688-.563 1.25-1.25 1.25-.688 0-1.25 1.406-1.25 3.125s-.703 3.16-1.563 3.204c-.86.044-.306.585 1.23 1.202 1.704.686 2.523 1.823 2.102 2.92-.38.988-.09 2.168.646 2.622.734.453 1.335 3.075 1.335 5.825 0 3.015-.496 4.693-1.25 4.227-1.6-.99-1.633.993-.042 2.583 1.472 1.472 2.577 13.626 1.667 18.34-.408 2.116-1.203 3.098-2.08 2.573-.781-.468-.643.106.306 1.276 1.09 1.346 1.663 4.88 1.556 9.615-.093 4.119.256 7.489.775 7.49.519 0 1.01 2.532 1.094 5.625.083 3.093-.245 5.623-.73 5.623-1.345 0-.707 4.573.912 6.523 1.89 2.277.54 7.227-1.968 7.227-1.596 0-1.51.37.459 1.968 1.334 1.082 1.762 1.635.95 1.23-.812-.406-1.83-.167-2.261.532-.435.703.363 1.27 1.788 1.27 3.063 0 3.19 1.03.715 5.795-1.076 2.07-1.347 3.753-.644 3.99.692.234.353 2.08-.787 4.285-1.79 3.462-1.8 4.022-.098 5.267 1.45 1.06 1.594 1.977.604 3.84-1.072 2.018-1.008 2.174.367.886 2.237-2.096 4.339-2.002 2.582.115-.766.922-1.022 2.047-.57 2.5.452.452.026.83-.948.84-1.437.016-1.46.219-.116 1.07 1.37.87 1.369 1.347-.015 2.793-.92.96-2.4 3.39-3.292 5.403-1.396 3.149-1.346 3.813.353 4.764 1.087.608 1.59 1.729 1.12 2.49-2.543 4.116.928 64.003 3.88 66.957.359.358.014 1.418-.764 2.356-1.138 1.37-.95 1.532.948.819 2.104-.79 2.172-.651.616 1.26-1.522 1.87-1.44 2.398.625 4.077 1.305 1.06 1.67 1.572.81 1.137-1.754-.89-2.18 1.327-.458 2.39.887.55 2.808 10.216 3.248 16.34.049.689.39 1.814.757 2.5.368.689.486 3.782.263 6.876-.224 3.094-.56 7.875-.746 10.625-.187 2.75-.745 5.655-1.24 6.456-.496.8-.195 1.71.669 2.024 1.258.455 1.26 1.095.01 3.215-1.832 3.102-2.084 6.9-.388 5.852 1.616-1 1.14 4.724-.49 5.89-.866.62-.886 1.256-.06 1.876 1.676 1.257 2.285 4.463.656 3.456-.704-.435-1.28-.23-1.28.459 0 .687.56 1.596 1.244 2.018.684.423 1.105 2.65.937 4.952-.168 2.3-.675 3.957-1.125 3.68-.45-.277-.525 1.68-.167 4.35s-.063 7.019-.936 9.663c-1.833 5.556-1.898 21.197-.12 29.11 1.226 5.459.015 10.795-2.933 12.918-.808.582-.703.925.287.937.868.013 1.563 1.552 1.563 3.465 0 1.895.51 5.228 1.136 7.406.624 2.178.765 4.33.312 4.783-.951.95-1.1 2.286-1.958 17.49-.348 6.188-.848 14.789-1.11 19.114-.26 4.325-.064 8.118.436 8.427 1.348.833-.111 9.81-1.767 10.878-.783.505-.862.935-.174.956.687.02.406.584-.625 1.25-1.603 1.036-1.557 1.215.312 1.23 1.203.014 2.188.583 2.188 1.27 0 .688-.951 1.25-2.114 1.25-1.892 0-1.91.164-.175 1.563 2.534 2.042 3.874 5.937 2.04 5.937-.78 0-1.063.355-.63.79.436.434.192 1.908-.54 3.275-.96 1.793-.947 2.25.044 1.637 1.882-1.163 1.774 3.399-.125 5.298-1.167 1.167-1.114 1.5.239 1.5 1.18 0 .959.604-.688 1.878-1.79 1.385-1.885 1.69-.365 1.165 3.31-1.145 3.868 1.6.772 3.794l-2.833 2.007 3.125 2.426c1.719 1.333 2.422 2.437 1.562 2.452-1.995.035-2.068 6.278-.074 6.278.84 0 .587.68-.583 1.563-2.224 1.677-2.252 4.648-.068 7.374.744.928.977 2.72.516 3.983-.46 1.262-.51 5.27-.11 8.905s.245 8.228-.347 10.205c-1.265 4.232-1.36 55-.146 79.22 1.24 24.758 1.28 31.392.199 32.06-.533.33-.117 1.45.923 2.492 1.282 1.282 1.53 2.54.768 3.903-.69 1.23-.621 3.117.176 4.866.94 2.06.885 3.356-.194 4.656-1.08 1.3-1.11 2.038-.11 2.657.914.564 1.154 3.91.706 9.799-.374 4.918-.901 13.723-1.171 19.567-.27 5.844-.924 11.666-1.452 12.939-.561 1.353-.394 2.663.403 3.156.895.553 1.06 3.186.48 7.686-1.102 8.54-.572 12.845 1.423 11.55.81-.526 4.848-1.678 8.973-2.56zm-8.027-517.25c.06-1.455.356-1.751.755-.754.362.902.317 1.98-.1 2.396-.414.415-.71-.323-.655-1.64zm76.152 518.929c0-.303-.563-.9-1.25-1.324-.688-.425-1.25-.177-1.25.55 0 .729.562 1.325 1.25 1.325.687 0 1.25-.248 1.25-.551zm-21.25-4.45c0-.686-.844-1.25-1.875-1.25-1.032 0-1.875.564-1.875 1.25 0 .689.843 1.25 1.875 1.25 1.03 0 1.875-.561 1.875-1.25zm-58.75-42.5c0-.686-.596-1.25-1.324-1.25-.728 0-.976.564-.551 1.25.424.689 1.02 1.25 1.323 1.25.304 0 .552-.561.552-1.25zm-331.93-69.913c.396-.64.148-1.517-.551-1.95-.7-.431-1.27.092-1.27 1.164 0 2.196.75 2.52 1.82.786zm215.34-77.092c-.415-.415-1.493-.46-2.396-.1-.997.4-.7.696.755.756 1.318.054 2.056-.241 1.64-.656zm.91-2.908c.396-.64.148-1.517-.551-1.95-.7-.431-1.27.092-1.27 1.164 0 2.196.75 2.52 1.82.786zm-4.321-10.087c0-.687-.248-1.25-.552-1.25-.303 0-.9.563-1.323 1.25-.425.688-.177 1.25.55 1.25.729 0 1.325-.562 1.325-1.25zm5-7.98c0-.263-1.126-.773-2.502-1.132-1.376-.36-2.187-.145-1.801.479.672 1.088 4.303 1.64 4.303.654zm401.25-8.27c0-.687-.248-1.25-.552-1.25-.303 0-.898.563-1.323 1.25-.425.688-.177 1.25.55 1.25.729 0 1.325-.562 1.325-1.25zm-426.941-200.107a1.396 1.396 0 0 0-1.916-.452 1.396 1.396 0 0 0-.452 1.916 1.396 1.396 0 0 0 1.915.452 1.396 1.396 0 0 0 .453-1.916zm-7.206-95.127c-.4-.997-.695-.701-.755.755-.054 1.318.24 2.056.657 1.64.415-.415.46-1.493.099-2.395zm-226.192-5.521c-.415-.415-1.493-.46-2.396-.1-.997.4-.7.696.755.756 1.318.054 2.056-.241 1.64-.656zm372.5-86.25c-.415-.415-1.493-.46-2.396-.1-.997.4-.7.696.755.756 1.318.054 2.056-.241 1.64-.656zm-183.411-112.43c0-1.477-2.364-1.474-2.93 0-.463 1.204-.09 1.573 1.118 1.11.996-.383 1.812-.884 1.812-1.113zm64.61-53.377c3.263-2.235 6.918-5.188 8.12-6.563 2.107-2.406 2.06-2.606-1.208-5.306-1.87-1.544-4.16-2.81-5.092-2.813-.932 0-3.366-1.412-5.408-3.13-3.464-2.915-9.697-4.302-9.832-2.188-1.17 18.36-1.114 22.089.342 23.013 3.084 1.957 7.206 1.007 13.078-3.013zm91.924-6.77c.554-6.186.455-6.443-2.383-6.14-1.63.173-4.885 2.019-7.236 4.1-4.25 3.76-4.258 3.794-1.533 5.253 1.509.807 4.143 2.268 5.854 3.245 3.946 2.254 4.589 1.47 5.298-6.457zm-53.336-21.003c1.335-1.01 3.973-1.853 5.864-1.875 2.136-.025 3.438-.72 3.438-1.835 0-.987 2.25-3.06 5-4.605 2.75-1.546 5-3.27 5-3.83s.562-1.02 1.25-1.02c.687 0 2.234-.853 3.437-1.895 10.134-8.782 16.166-13.612 20.102-16.097 5.575-3.52 8.79-7.008 6.46-7.008-1.217 0-1.204-.423.058-1.943 1.798-2.167 2.864-31.602 1.24-34.23-.516-.836-.46-4.087.128-7.226 1.394-7.464 1.68-25.57.527-33.476-2.053-14.087-2.544-23.166-1.928-35.625.357-7.22.172-13.798-.411-14.622-.596-.842-.517-2.47.182-3.718.684-1.22.798-3.08.253-4.128-.544-1.05-.997-4.438-1.007-7.532-.01-3.094-.72-7.313-1.576-9.376-2.134-5.14-3.553-14.327-2.328-15.083.552-.342.65-1.539.22-2.66-.5-1.306-.286-1.734.594-1.19.757.467 1.73.278 2.16-.42.433-.7.269-1.27-.364-1.27s-.866-1.49-.517-3.312c.437-2.29.19-3.037-.803-2.423-.968.598-1.26-.053-.9-2.002.296-1.589.579-4.436.63-6.326.054-1.985.797-3.438 1.76-3.438.916 0 1.666-.844 1.666-1.875 0-2.77-3.037-2.277-3.964.643-.44 1.385-1.37 2.166-2.068 1.734-.853-.527-.856-1.197-.01-2.045.694-.694.928-2.129.522-3.19-.51-1.324-.25-1.624.827-.958 1.12.693 1.449.128 1.15-1.983-.277-1.954-1.184-2.888-2.686-2.764-2.12.175-2.131.038-.194-2.103 1.14-1.26 3.004-1.994 4.143-1.632 1.548.493 1.658.363.435-.515-1.054-.756-1.34-2.354-.802-4.493.526-2.097.322-3.319-.553-3.319-.762 0-1.386-.545-1.386-1.21 0-.666.844-.888 1.875-.492 2.15.825 2.72-3.879.625-5.173-1.675-1.035-1.594-7.28.116-8.99.977-.977.984-2.08.026-3.87-1.002-1.872-.926-2.845.302-3.864.903-.75 1.559-2.485 1.457-3.856-.202-2.743-1.9-5.137-1.9-2.68 0 .843-.563 1.185-1.25.76-2.024-1.25-1.477-4.383.624-3.577 1.343.515 1.87-.117 1.856-2.227-.014-2.109-.322-2.468-1.085-1.265-1.72 2.713-2.951-4.4-1.297-7.49.986-1.843 1.024-3.475.127-5.444-.723-1.587-1.003-7.103-.643-12.655.35-5.413.682-10.545.736-11.404.054-.86.58-1.563 1.168-1.563.59 0 .085-1.504-1.12-3.342-1.604-2.449-1.78-3.479-.653-3.854.845-.282 1.536-1.06 1.536-1.732 0-.67-.562-.872-1.25-.447-1.722 1.064-1.58-2.294.17-4.044 1.06-1.06.9-1.938-.623-3.462-1.58-1.582-1.74-2.605-.708-4.535.95-1.777.943-2.966-.03-4.137-.922-1.112-.972-2.67-.155-4.82.665-1.746 1.352-6.174 1.527-9.839.176-3.664.91-7.474 1.632-8.465.964-1.324.918-1.566-.174-.91-1.884 1.13-1.713-4.38.177-5.706.89-.624.858-.925-.096-.938-2.142-.029-1.722-6.57.6-9.372 1.908-2.3 1.908-2.365 0-.892-1.792 1.382-2.034 1.178-1.874-1.583.1-1.744.539-3.17.974-3.17.435 0 .02-2.236-.92-4.968-1.04-3.017-1.32-6.083-.718-7.812.545-1.566.895-4.112.777-5.66-.125-1.645.493-2.812 1.49-2.812 1.93 0 2.323-3.22.53-4.329-.647-.4-.99-3.835-.764-7.635.36-6.044.057-7.142-2.418-8.764-2.933-1.92-4.004-7.989-1.424-8.062.773-.02.44-.772-.738-1.668-1.216-.924-1.683-2.124-1.078-2.773 1.57-1.684 3.07-7.209 1.734-6.383-.622.385-1.838.262-2.702-.27-1.966-1.217-2.22-14.426-.366-19.134.894-2.27.918-3.652.072-4.174-.817-.505-.71-1.446.302-2.666.86-1.037 1.725-2.936 1.92-4.22.197-1.284.43-2.776.52-3.316.404-2.444-.257-4.106-1.634-4.106-1.166 0-1.166.335 0 1.502 1.17 1.168.699 2.346-2.124 5.312-1.994 2.096-4.743 5.933-6.11 8.526-1.364 2.594-3.952 6.186-5.75 7.983-1.796 1.798-3.267 3.98-3.267 4.851s-2.812 4.28-6.25 7.574c-3.437 3.294-6.25 6.487-6.25 7.094 0 1.824-10.912 12.158-12.838 12.158-3.936 0-23.411-17.226-23.411-20.707 0-1.875-8.847-11.178-11.574-12.172-1.21-.44-2.846-2.223-3.638-3.96-.792-1.739-2.107-3.16-2.923-3.16-2.05 0-7.567-5.002-7.147-6.48.19-.664-.233-.85-.937-.415-1.672 1.033-1.652 5.268.03 6.307.907.56.89 1.315-.052 2.452-.99 1.193-.967 1.774.085 2.125 1.408.47 2.692 15.62 2.258 26.635-.285 7.224-.088 15.221.577 23.438.475 5.865.23 7.187-1.326 7.187-1.517 0-1.603.368-.42 1.795 1.144 1.378 1.15 2.432.025 4.534-.974 1.82-1.04 3.003-.194 3.525 1.315.813 1.424 33.414.12 35.771-.381.688-.54 3.5-.355 6.25.186 2.75.01 5.844-.387 6.875-.4 1.031-.95 3.844-1.222 6.25-.273 2.406-1.136 6.344-1.92 8.75-1.353 4.162-2.262 18.604-2.277 36.187 0 4.434-.555 8.4-1.224 8.814-.771.477-.794 2.225-.063 4.775.715 2.492.709 3.747-.016 3.3-1.46-.903-1.458-.792.164 6.771.898 4.185.932 7.68.104 10.677-.677 2.451-.843 4.696-.37 4.99.475.292.668 3.53.43 7.196-.237 3.666-.415 8.353-.394 10.415.29 29.263-.3 49.724-1.49 51.563-.556.86-.556 1.563 0 1.563 1.318 0 1.323 43.226.01 44.545-.553.554-1.426.326-1.94-.506-.53-.858-.99.412-1.06 2.935-.07 2.446.522 4.695 1.314 4.999 1.559.597 1.68 13.287.165 17.098-.498 1.253-.07 3.424.996 5.05 1.09 1.665 1.71 4.913 1.49 7.803-1.148 15.02-2.256 36.34-2.403 46.216-.092 6.196-.573 11.923-1.07 12.726-.496.803-.355 1.799.314 2.212.668.413.899 1.577.51 2.586-.386 1.01-.221 1.835.368 1.835.59 0 1.132 4.293 1.206 9.539.103 7.327.596 9.796 2.126 10.652 1.095.613 2.722 1.805 3.615 2.65.894.843 3.312 2.37 5.375 3.392 2.062 1.02 5 2.99 6.532 4.375 6.264 5.668 7.909 6.892 9.262 6.892.78 0 2.722 1.406 4.315 3.125 1.593 1.719 4.022 3.125 5.4 3.125 1.376 0 3.842 1.34 5.48 2.979 3.149 3.148 9.362 6.887 11.584 6.97.728.029 2.416-.775 3.75-1.784zm45.552-276.989c0-.728.562-.976 1.25-.55.687.424 1.25 1.02 1.25 1.323 0 .303-.563.551-1.25.551-.688 0-1.25-.595-1.25-1.324zm-123.337 225.8c.377-.983-.486-2.55-1.937-3.512-2.061-1.37-2.346-2.222-1.34-4.018.756-1.352.875-4.054.292-6.64-.997-4.42-.44-7.806 1.288-7.806 1.132 0 .586-19.676-.633-22.812-.513-1.32-.272-2.188.607-2.188.8 0 1.139-.515.75-1.145-.39-.63-.163-2.58.503-4.33.666-1.753.746-3.474.178-3.825-1.663-1.028-2.5-10.512-1.3-14.703.609-2.12.737-4.45.285-5.182-1.332-2.154-1.372-12.062-.052-12.878.72-.444.556-1.155-.403-1.748-1.31-.81-1.292-1.388.098-3.063 2.117-2.55 3.15-11.876 1.314-11.876-.722 0-1.313-.877-1.313-1.95 0-1.07.422-1.687.937-1.37 1.365.84 1.029-10.774-.374-12.957-1.42-2.208-.968-32.308.514-34.246 1.204-1.576 1.54-20.757.396-22.602-1.367-2.203-1.498-5.625-.215-5.625.683 0 1.242-1.654 1.242-3.676 0-2.022.573-4.03 1.273-4.463.78-.482.218-2.267-1.45-4.61-2.23-3.13-2.456-4.25-1.253-6.177 1.593-2.552.672-8.538-1.575-10.23-.981-.74-.952-1.205.102-1.638.935-.384 1.214-2.19.766-4.954-.555-3.418-.1-4.996 2.124-7.363 1.724-1.835 2.522-3.813 2.042-5.064-.434-1.13.12-3.966 1.23-6.304 1.287-2.713 1.977-7.308 1.907-12.699-.06-4.646-.117-10.697-.125-13.447-.01-2.75-.05-11.75-.094-20-.166-31.155.108-39.275 1.956-58.125 1.044-10.656 1.835-23.594 1.757-28.75-.161-10.622 1.056-38.246 1.996-45.312.365-2.74.098-4.688-.64-4.688-.697 0-1.266-.844-1.266-1.875 0-1.03.627-1.734 1.392-1.562.765.172 1.605-.953 1.867-2.5.3-1.779-.153-2.813-1.235-2.813-1.735 0-3.795-6.895-2.625-8.788.35-.568-.495-1.39-1.88-1.83-1.385-.44-2.52-1.606-2.52-2.59 0-2.373-2.394-2.274-5.14.211-1.746 1.58-4.845 1.97-14.697 1.85-7.206-.087-12.813.38-13.262 1.108-.428.692-3.421 1.203-6.651 1.136-3.23-.068-8.686.225-12.124.65-7.567.938-17.361 1.074-38.436.536-8.766-.224-15.938-.11-15.938.256 0 .894-18.885.138-21.25-.852-1.032-.43-2.72-.897-3.75-1.035-1.032-.138-3.65-.655-5.82-1.15-2.42-.55-4.263-.38-4.773.445-.457.74-1.476.945-2.264.458-.788-.487-3.702-.987-6.476-1.11-2.773-.124-10.95-.68-18.168-1.238-7.218-.557-18.582-.92-25.252-.808-6.826.116-12.46-.33-12.887-1.02-.417-.676-1.32-1.229-2.008-1.229s-.924.528-.526 1.172c.835 1.351-7.766 1.7-35.901 1.45-15.22-.134-20.514.248-23.28 1.678-1.968 1.018-3.79 1.638-4.05 1.378-.26-.26-.364 7.92-.233 18.175.135 10.62-.255 18.647-.907 18.647-.66 0-.705 1.187-.104 2.813.572 1.547.786 3.534.476 4.417-.31.882.093 2.396.896 3.363.803.967 1.559 4.603 1.68 8.08.122 3.475.594 6.321 1.049 6.323.455.002 1.226 2.395 1.712 5.317.487 2.922 1.58 7.281 2.43 9.687.849 2.406 2.572 7.75 3.828 11.875 1.256 4.125 2.793 8.18 3.414 9.008.62.83.709 2.235.196 3.125-.514.89-.47 1.196.099.682 1.713-1.554 5.607 11.498 6.804 22.81.618 5.844 1.444 11.47 1.835 12.5.39 1.031.92 5.075 1.18 8.987.283 4.293 1.257 7.9 2.456 9.1 1.093 1.091 1.67 2.813 1.282 3.824-.388 1.012-.048 1.84.756 1.84.805 0 1.363.984 1.24 2.187-.37 3.626.215 7.305.893 5.625 1.059-2.623 2.602-1.75 3.312 1.875 1.385 7.07 8.32 24.486 12.639 31.735 2.46 4.13 4.472 8.277 4.472 9.218 0 .941.586 2.074 1.302 2.517.717.443 2.184 3.007 3.26 5.7 1.078 2.69 2.494 4.892 3.147 4.892.653 0 .88.5.503 1.11-.377.61.153 1.802 1.176 2.652 1.024.85 1.862 2.6 1.862 3.891s.524 2.347 1.165 2.347c.64 0 1.503 1.062 1.915 2.36.412 1.3 2.11 3.83 3.773 5.624 1.664 1.795 4.766 5.795 6.895 8.89 2.13 3.094 4.42 5.626 5.088 5.626.67 0 1.84 1.547 2.604 3.438 4.142 10.27 7.455 15.563 12.622 20.168 1.203 1.072 2.188 2.431 2.188 3.02 0 1.106 6.617 7.528 14.33 13.904 2.43 2.01 4.42 4.4 4.42 5.312 0 .911.54 1.657 1.199 1.657 2.198 0 7.216 6.45 8.836 11.358.88 2.666 2.636 5.176 3.904 5.578 1.268.403 2.65 2.108 3.072 3.79.422 1.68 1.41 3.472 2.198 3.979.787.507 3.002 3.03 4.924 5.609 1.92 2.578 4.136 4.687 4.92 4.687 1.59 0 8.662 7.507 13.447 14.277 1.718 2.43 3.968 4.71 5 5.065 1.03.354 5.697 4.253 10.369 8.664 4.67 4.41 9.312 8.334 10.312 8.718 1 .384 1.818 1.446 1.818 2.36 0 .916 1.97 2.376 4.375 3.246 2.407.87 4.375 2.36 4.375 3.314 0 .953.88 2.224 1.954 2.825 1.074.6 2.076 1.93 2.226 2.953.15 1.023 2.137 3.512 4.414 5.53 2.278 2.02 5.696 5.22 7.597 7.11 1.9 1.89 4.19 3.438 5.09 3.438.9 0 1.28.356.845.792-.435.435 1.44 2.407 4.166 4.382 2.727 1.976 4.958 4.096 4.958 4.712 0 .616 1.547 1.762 3.438 2.546 7.193 2.985 12.944 6.456 13.62 8.22.388 1.009 1.208 1.523 1.823 1.142.616-.38 1.12-.096 1.12.632 0 .729.742 1.324 1.65 1.324.907 0 3.86 1.875 6.562 4.167 4.892 4.15 9.187 6.973 10.716 7.045.442.02 1.11-.76 1.485-1.736zm153.71-8.85c1.51-3.167 2.897-4.376 5.023-4.376 3.956 0 4.655-.952 3.305-4.503-.74-1.947-.693-2.997.134-2.997.7 0 1.183-.703 1.07-1.562-.57-4.391.097-5.015 4.58-4.287 3.335.54 4.329.32 3.875-.864-.336-.875.54-2.31 1.948-3.19 2.073-1.294 2.227-1.804.813-2.685-1.278-.795-.656-1.307 2.316-1.906 2.27-.457 4.063-1.594 4.063-2.576 0-.967.84-2.08 1.867-2.475 1.028-.394 1.557-1.22 1.177-1.836-.38-.615.186-1.12 1.26-1.12 1.866 0 10.76-8.787 11.834-11.69.83-2.248 3.5-4.504 4.338-3.666.425.426.774-.095.774-1.156 0-1.062.857-2.642 1.905-3.512 1.048-.87 1.62-1.866 1.273-2.214-.348-.347.622-1.708 2.157-3.022a6343.56 6343.56 0 0 0 5.657-4.854c1.577-1.355 3.493-2.078 4.256-1.606.83.513 1.037.289.512-.56-.835-1.35 13.367-16.47 15.47-16.47.532 0 3.609-3.093 6.84-6.874 3.23-3.781 6.673-6.875 7.65-6.875.979 0 1.78-.54 1.78-1.2 0-.66 2.109-3.398 4.687-6.087 2.578-2.688 5.615-5.945 6.749-7.238 3.205-3.655 8.37-7.73 9.128-7.202.377.263.45.147.16-.257-.29-.403 4.007-6.17 9.548-12.813l13.963-16.744c2.14-2.567 3.707-5.076 3.485-5.576-.223-.5.522-1.235 1.655-1.633 1.133-.397 1.877-1.019 1.655-1.38-.223-.363 1.14-2.094 3.032-3.846 1.89-1.752 3.438-3.777 3.438-4.5 0-.724.663-1.537 1.474-1.807.849-.283 1.118-1.423.634-2.683-.462-1.206-1.407-1.842-2.1-1.414-.692.428-1.258.182-1.258-.546 0-1.682.758-1.665 4.144.095 1.502.781 2.334.994 1.85.473-.486-.52.74-2.57 2.726-4.554 1.984-1.985 4.598-5.854 5.81-8.598 1.21-2.744 2.655-4.99 3.21-4.99.555 0 1.01-.71 1.01-1.578 0-.869 1.265-2.138 2.812-2.822 2.066-.914 2.72-2.128 2.467-4.578-.228-2.205.51-3.933 2.18-5.103 1.389-.972 2.153-2.14 1.7-2.593-.455-.454-.1-.826.785-.826 1.29 0 1.302-.373.055-1.875-1.3-1.566-1.12-1.875 1.097-1.875 1.46 0 2.653-.533 2.653-1.185 0-1.722 5.663-7.565 7.33-7.565.78 0 1.42-1.677 1.42-3.726 0-2.932.666-3.893 3.125-4.51 1.72-.432 3.125-1.492 3.125-2.356 0-.864 1.125-3 2.5-4.749 1.375-1.748 2.5-3.939 2.5-4.869 0-.93 1.266-3.12 2.813-4.869 4.273-4.828 9.744-14.479 10.23-18.046.203-1.474 4.788-10.969 5.736-11.875 1.867-1.784 4.97-7.666 4.97-9.418 0-1.104 1.716-4.498 3.81-7.544 2.097-3.046 3.222-5.538 2.5-5.538-.72 0-1.31-1.125-1.31-2.5s.443-2.5.984-2.5c.54 0 1.043-.984 1.119-2.187.18-2.877 1.328-7.533 2.207-8.956.385-.623.79-3.426.9-6.228.154-3.917.56-4.796 1.76-3.802 2.162 1.795 2.67.333 2.529-7.264-.067-3.61.288-6.563.79-6.563.503 0 .722-1.642.489-3.65-.33-2.825.17-3.839 2.212-4.486 2.534-.804 2.516-.87-.49-1.727-2.935-.838-2.98-.973-.747-2.232 1.88-1.06 2.228-2.254 1.667-5.714-.508-3.128 0-5.544 1.794-8.49 2.587-4.253 2.896-6.188 4.182-26.175.419-6.517.942-12.03 1.163-12.25.22-.22-.037-2.345-.573-4.72-.574-2.545-.48-4.625.23-5.064.664-.41.91-1.513.55-2.453s-.118-2.04.54-2.448c1.859-1.148 1.412-4.53-.942-7.13-1.723-1.905-1.816-2.562-.48-3.388 1.227-.759 1.318-1.632.35-3.36-.966-1.73-.85-2.84.452-4.279.967-1.068 1.91-3.31 2.1-4.982.187-1.67 2.013-4.595 4.056-6.496 2.475-2.3 3.08-3.456 1.813-3.456-1.047 0-2.538.635-3.314 1.411-1.048 1.048-2.311.703-4.908-1.34-1.923-1.512-3.65-2.288-3.837-1.723-.188.565-8.357.644-18.155.175-23.36-1.118-55.94-1.04-55.94.134 0 .51-1.968 1.01-4.375 1.11-2.406.1-5.898.263-7.76.363-1.862.1-3.604-.474-3.872-1.276-.347-1.04-.944-1.078-2.09-.128-1.157.962-2.61.752-5.24-.756-3.412-1.96-3.922-1.95-8.31.131-3.213 1.525-6.284 2.003-9.82 1.53-2.828-.38-13.36-.206-23.4.387-39.188 2.313-67.276 2.82-68.26 1.23-.678-1.099-1.173-1.13-1.802-.112-.64 1.036-3.454 1.034-10.781-.007-11.096-1.578-46.397-.51-48.79 1.475-1.88 1.56-3.258 8.488-2.057 10.337 1.09 1.68 1.082 1.52 2.127 33.934.867 26.89.953 28.076 2.196 30.06.45.72.557 2.97.237 5-.965 6.112-1.286 14.86-.594 16.19.358.688.727 3.434.822 6.103.099 2.802.942 5.284 1.994 5.874 1.367.764 1.715 2.914 1.388 8.584-.24 4.16.024 7.564.585 7.564.56 0 1.105 1.125 1.209 2.5.114 1.513-.583 2.5-1.762 2.5-1.512 0-1.63.386-.526 1.717.783.944 1.102 2.556.708 3.583-.394 1.026.514 5.457 2.017 9.846 2.504 7.31 4.233 27.61 2.5 29.344-1.023 1.023-1.223 4.697-.33 6.064.473.727 1.018 6.103 1.21 11.946.568 17.292.68 18.75 1.433 18.75.395 0 .634 3.234.53 7.187-.104 3.954.243 9.565.77 12.47 1.038 5.718.35 11.931-1.212 10.965-1.155-.713-4.995 6.973-4.995 9.997 0 1.164 1.125 2.41 2.5 2.77 2.612.682 3.139 1.807 1.579 3.367-1.226 1.225-1.205 4.934.033 5.848.542.401.418 2.224-.277 4.05-.695 1.827-.818 4.525-.274 5.996.568 1.534.312 5.287-.6 8.802-.874 3.37-1.313 9.345-.975 13.276.856 9.944.855 9.485.035 23.397-.404 6.876-1.267 14.329-1.916 16.563-.666 2.293-.7 4.063-.076 4.063.607 0 .93 2.672.716 5.937-.213 3.266.137 6.61.78 7.43.64.82 1.263 7.71 1.383 15.312.16 10.107.638 13.82 1.78 13.82.86 0 1.563.563 1.563 1.25 0 .688-.495 1.25-1.1 1.25-.616 0-.575 2.45.095 5.593.934 4.377.793 6.162-.648 8.219-1.953 2.788-1.838 17.89.195 25.526.554 2.083.589 5.756.077 8.163-.512 2.406-.716 5.78-.453 7.5.264 1.718.81 5.234 1.213 7.812.914 5.836 2.074 5.913 4.744.313zm-8.498-195.626c-.425-.687-.177-1.25.55-1.25.729 0 1.325.563 1.325 1.25 0 .688-.248 1.25-.552 1.25-.303 0-.9-.562-1.323-1.25zm2.5-7.5c.424-.687 1.02-1.25 1.323-1.25.304 0 .552.563.552 1.25 0 .688-.596 1.25-1.324 1.25-.728 0-.976-.562-.551-1.25zm255.39-204.604c.903-.36 1.98-.316 2.396.1.415.414-.323.71-1.64.655-1.457-.06-1.753-.356-.756-.755zm-399.764 350.854c0-.687-.248-1.25-.552-1.25-.303 0-.9.563-1.323 1.25-.425.688-.177 1.25.55 1.25.729 0 1.325-.562 1.325-1.25zm-167.84-53.255c-.414-.415-1.492-.46-2.395-.1-.997.4-.7.697.755.757 1.318.054 2.056-.242 1.64-.657zm293.663-45.182c-.217-1.89-.728-4.282-1.135-5.313a89.546 89.546 0 0 1-1.366-3.75c-.397-1.192-.66-.878-.724.864-.054 1.506.446 3.075 1.11 3.486.666.41.877 2.413.47 4.45-.466 2.327-.225 3.7.65 3.7.78 0 1.217-1.51.995-3.437zm-46.53-254.032c2.017-.767 3.207-2.18 3.207-3.807 0-1.423 1.265-3.853 2.812-5.4 1.547-1.547 2.813-3.35 2.813-4.006 0-2.153 6.937-12.824 8.802-13.54 1.002-.385 1.823-1.773 1.823-3.086 0-1.312.935-3.158 2.078-4.1 1.143-.945 3.138-4.107 4.433-7.029 1.296-2.922 2.892-5.313 3.547-5.313.655 0 1.192-1 1.192-2.222s1.125-3.185 2.5-4.363c1.684-1.442 2.5-3.687 2.5-6.88 0-4.737 0-4.74 5.53-4.982 3.044-.132 5.997-.352 6.564-.488.567-.137 4.224.19 8.128.726 4.91.675 6.91 1.46 6.494 2.547-.773 2.015 6.819 3.647 8.906 1.914.833-.69 4.409-.98 7.946-.644 4.98.474 6.432.216 6.432-1.144 0-.965-.704-2.04-1.563-2.386-.86-.347.536-.675 3.1-.73 3.97-.083 4.78.367 5.449 3.027.915 3.643 2.72 4.004 4.928.985 1.252-1.713 1.93-1.838 3.39-.626 1.095.91 4.14 1.298 7.608.973 3.607-.338 5.676-.055 5.498.754-.157.713 1.344 1.49 3.336 1.727 1.993.237 4.214 1.023 4.938 1.747 1.96 1.96 7.984 1.59 11.485-.704 2.124-1.392 3.08-1.55 3.08-.51 0 1.021 1.92 1.383 5.938 1.12 3.266-.214 7.238.335 8.828 1.22 2.15 1.198 5.995 1.374 15 .687 12.27-.936 20.783-1.102 32.11-.626 10.846.455 19.159-.542 21.493-2.578 1.308-1.14 5.934-2.326 11.007-2.82 4.812-.47 9.182-1.285 9.71-1.812.528-.527 3.903-.568 7.5-.09 3.597.475 6.91.652 7.364.393.882-.506 17.922-1.978 21.05-1.82 10.664.542 70.273.084 71.295-.547.74-.458 5.248.123 10.016 1.292 8.719 2.137 19.353 1.698 26.19-1.08 3.268-1.328 17.5-4.364 17.5-3.733 0 .332 1.482-.56 3.293-1.986 1.812-1.425 4.548-2.59 6.082-2.59 1.533 0 4.27-1.167 6.08-2.592 2.59-2.037 3.295-2.193 3.295-.729 0 1.024-.704 2.146-1.563 2.492-1.087.44-1.116.66-.096.73.807.054 3.302-1.73 5.545-3.964 2.243-2.235 4.537-3.922 5.096-3.75.56.172 1.018-.532 1.018-1.563a1.88 1.88 0 0 1 1.875-1.875c1.03 0 1.875-.562 1.875-1.25 0-.687 1.219-1.25 2.708-1.25 1.49 0 2.422-.286 2.072-.637-1.004-1.003-12.148-1.41-11.537-.42.3.486.035 1.201-.592 1.59-.626.386-1.462-.138-1.856-1.165-.394-1.027-2.107-1.868-3.807-1.868-1.7 0-3.394-.49-3.765-1.092-.372-.6-3.21-.922-6.306-.715-3.097.207-5.903-.063-6.235-.6-.332-.537-3.533-.806-7.114-.597-3.58.208-7.068.034-7.75-.388-1.96-1.21-20.801-2.065-33.943-1.538-8.01.321-18.43-.588-20.351-1.776-.643-.397-3.076-.17-5.41.506-2.903.84-6.405.771-11.114-.22-3.781-.794-16.866-1.427-29.078-1.406-12.211.021-22.436-.34-22.723-.803-.286-.463-2.67-.72-5.297-.572-2.627.148-13.577.538-24.332.865-17.723.54-19.926.37-23.513-1.812-2.177-1.324-4.347-2.166-4.822-1.872-.476.294-3.395.686-6.487.872-3.093.186-6.334.877-7.203 1.536-2.213 1.677-11.29 2.287-12.197.82-.457-.74-1.574-.777-2.862-.095-1.16.616-6.05.917-10.861.668-4.813-.248-12.97-.423-18.125-.39-5.156.034-10.781-.067-12.5-.225-3.656-.335-11.79-.375-16.25-.079-3.43.227-27.851.486-38.75.41-16.303-.112-49.733-1.478-53.75-2.196-2.406-.43-4.656-.797-5-.816-.344-.019-1.91-.523-3.482-1.12-2.144-.816-3.045-.6-3.607.867-.54 1.405-1.668 1.725-4.018 1.14-3.968-.99-7.846-4.283-6.881-5.844.387-.625.023-1.957-.808-2.958-.903-1.089-.997-1.82-.232-1.82 3.49 0 5.108-25.16 2.11-32.828-.474-1.212-.293-2.9.402-3.75.978-1.197 1.202-26.547.234-26.547-.11 0-.324-2.53-.473-5.625-.15-3.094-.72-6.96-1.267-8.594-.66-1.966-.556-2.697.308-2.163.878.543.96-.394.248-2.875-.58-2.024-.834-3.902-.562-4.173.272-.272-.374-4.955-1.434-10.407s-2.047-11.882-2.194-14.288c-.146-2.406-.671-5.014-1.166-5.796-.496-.78-.093-2.09.893-2.91 1.25-1.037 1.474-2.329.736-4.269-1.34-3.524-.476-17.244 1.15-18.248.672-.416.868-2.42.435-4.454-.432-2.034-.704-5.948-.603-8.698 1.377-37.478 1.2-55.573-.617-63.125-1.463-6.082-1.785-11.892-1.281-23.107.853-18.975-1.832-31.796-6.301-30.082-1.05.403-2.643.12-3.544-.626-1.185-.984-2.418-.94-4.47.158-2.08 1.113-2.957 1.14-3.304.097-.316-.946-1.117-.773-2.41.518-1.063 1.065-2.688 1.647-3.61 1.294-.92-.354-1.987-.133-2.371.49-.385.621-2.495.903-4.69.626-2.272-.288-4.4.143-4.946 1.001-1.21 1.905-1.28 7.68-.108 8.852 1.263 1.262.5 28.483-.844 30.102-1.08 1.3-.725 12.207.577 17.788.352 1.505.072 3.086-.62 3.513-.834.516-.801 1.63.098 3.31.745 1.391 1.033 2.852.64 3.246-.394.393-.09 1.47.676 2.393 1.023 1.232 1.023 1.677 0 1.677-1.14 0-1.215 5.561-.117 8.75.118.344.173 5.547.122 11.563-.05 6.015.397 10.937.995 10.937.599 0 .85 2.531.562 5.625-.301 3.227 0 5.625.71 5.625 1.437 0 .203 3.986-1.61 5.2-.734.49-.323 1.732 1.018 3.072 2.165 2.165 2.123 2.282-1.128 3.152-1.857.496-4.093 1.498-4.97 2.226-1.882 1.562-1.696 12.795.294 17.816 1 2.521.93 3.668-.285 4.676-.886.735-2.115.92-2.732.41s-.025.373 1.316 1.962c2.68 3.177 2.917 8.416 1.367 30.236-1.058 14.885-.93 20.998.499 23.665.616 1.152.82 6.636.455 12.187-.46 6.987-.216 10.37.794 10.995 1.053.65.86 1.563-.691 3.277-1.787 1.974-1.836 2.376-.29 2.376 2.707 0 2.283 3.983-.502 4.71-1.43.375-2.09 1.33-1.671 2.42.38.99.11 2.885-.598 4.21-.846 1.58-.86 2.41-.04 2.41.762 0 .98 2.56.558 6.563-.663 6.295-2.257 11.155-6.2 18.9-1.283 2.52-1.44 4.053-.531 5.15 2.804 3.38.01 9.387-4.364 9.387-1.638 0-3.325.563-3.75 1.25-1.154 1.866-5.545 1.51-7.68-.625-2.401-2.402-6.862-2.513-5.955-.15 1.06 2.76-7.124 6.977-14.65 7.548-3.693.28-6.715.602-6.715.714 0 .486-11.58 1.694-15 1.565-3.75-.14-19.714-1.394-21.536-1.69-.53-.087-1.386-.02-1.902.146-2.357.765-3.8.94-8.973 1.086-3.245.091-6.37.99-7.552 2.172-1.304 1.304-4.978 2.217-10.402 2.584-4.612.313-10.354.756-12.76.986-2.407.23-9.307.543-15.335.696-6.028.154-11.207.68-11.51 1.168-.635 1.03-4.502.908-6.302-.197-1.633-1.002-22.797-.348-27.182.84-2.188.593-4.13.374-5.301-.597-1.173-.973-3.336-1.215-5.921-.663-5.722 1.222-15.841.813-18.78-.76-1.631-.873-2.201-.886-1.677-.038 1.43 2.313-4.12 2.933-18.49 2.065-11.708-.707-14.8-.51-18.007 1.148-4.7 2.43-25.814 2.866-27.237.563-.627-1.014-1.34-.825-2.408.637-1.11 1.517-3.836 2.17-10.122 2.42-4.732.19-9.342.802-10.246 1.361-.903.56-6.246.61-11.875.11-19.64-1.742-53.353.053-61.075 3.251-2.747 1.138-3.952 1.118-5.408-.09-1.345-1.117-1.874-1.15-1.874-.118 0 .966-2.77 1.358-8.438 1.195-9.686-.278-23.706 1.194-26.785 2.812-1.154.607-5.091 1.213-8.75 1.347-3.66.135-7.782.956-9.163 1.825-1.38.87-6.34 1.722-11.02 1.895-5.854.216-8.826.877-9.52 2.116-.614 1.097-2.048 1.53-3.666 1.107-1.462-.382-2.655-.326-2.65.126.01 1.031 7.237 5.195 9.018 5.195.728 0 2.089.984 3.024 2.188 1.62 2.081 1.766 2.08 3.027-.027.73-1.217 1.756-1.948 2.28-1.624.525.324 9.948.853 20.94 1.174 14.133.414 21.9 1.211 26.525 2.724 4.404 1.441 8.38 1.887 12.173 1.367 3.156-.432 5.333-.286 4.95.332-1.078 1.746 9.74 2.485 11.18.765.757-.905 3.714-1.335 7.5-1.09 3.437.22 7.093.07 8.125-.335 1.03-.405 7.552-.87 14.49-1.035 6.94-.165 13.33-.74 14.204-1.28 1.465-.905 29.99-2.247 40.056-1.885 2.406.087 5.218.14 6.25.115 2.49-.058 17.165.097 35.625.377 8.25.125 16.207-.186 17.684-.69 1.476-.504 3.07-.53 3.542-.059.472.472 4.608.977 9.19 1.121 4.584.145 9.178.336 10.209.423 1.03.088 3.28.057 5-.069 1.719-.125 6.953-.113 11.633.028 4.68.14 8.815-.052 9.19-.427.376-.376 2.108-.142 3.85.52 4.25 1.616 13.822 2.71 25.952 2.967 5.5.117 10.422.366 10.937.555 1.01.37 21.982.485 22.5.124 1.195-.833 6.17-.643 6.727.257.382.618 1.36.544 2.218-.168 1.885-1.565 7.834-1.883 11.876-.634 2.137.66 2.749.511 2.113-.517-.932-1.51-.153-1.698 8.629-2.083 2.75-.12 8.092-1.105 11.87-2.188 4.457-1.278 7.378-1.55 8.313-.774.95.788 2.869.415 5.629-1.096 2.977-1.63 5.994-2.15 10.438-1.8 3.437.27 7.656.426 9.375.344 12.272-.584 17.55-.37 18.979.767.905.721 5.16 1.186 9.458 1.033 4.297-.154 7.813.128 7.813.626 0 .497 2.232 1.261 4.96 1.698 4.843.774 8.463 4.327 6.558 6.437-.491.544-.255.625.524.18.826-.47 2.056.732 2.947 2.883.84 2.031 2.709 4.067 4.15 4.524 3 .953 5.86 3.52 5.86 5.26 0 .652.838 1.88 1.862 2.73 1.024.85 1.577 2.005 1.23 2.567-.348.562-.101 1.35.547 1.751.649.4 1.872 2.83 2.718 5.4 1.262 3.831 6.13 12.72 7 12.78.127.007 1.674-.535 3.437-1.205zm-431.793-42.53c0-.688.562-1.25 1.25-1.25.687 0 1.25.562 1.25 1.25 0 .687-.563 1.25-1.25 1.25-.688 0-1.25-.563-1.25-1.25zm638.515-15.855c.903-.36 1.98-.316 2.396.1.415.414-.323.71-1.64.655-1.457-.06-1.753-.356-.756-.755zM1380.033 554.99c0-.687.595-1.25 1.323-1.25s.976.563.552 1.25c-.425.688-1.021 1.25-1.324 1.25-.303 0-.551-.562-.551-1.25zm-320.34 137.995c-.415-.415-1.493-.46-2.396-.099-.997.4-.7.696.755.756 1.318.054 2.056-.242 1.64-.657zm182.214-52.995c.424-.687.176-1.25-.552-1.25s-1.323.563-1.323 1.25c0 .688.248 1.25.55 1.25.304 0 .9-.562 1.325-1.25zm-134.428-10.592c.716-.443 1.303-.227 1.303.48 0 .706.703 1.031 1.562.723.86-.309 10-.844 20.313-1.19 10.312-.345 19.312-.659 20-.697.687-.038 11.093-.003 23.125.08 17.093.116 23.07-.283 27.344-1.828 3.009-1.087 7.616-1.976 10.239-1.976 2.623 0 5.117-.562 5.542-1.25 1.029-1.665 16.504-1.61 17.537.06.555.898 1.36.854 2.558-.139.96-.798 2.628-1.113 3.704-.7 1.125.432 1.63.226 1.192-.485-.43-.696.77-1.278 2.747-1.33 1.932-.054 4.637-.337 6.012-.63 1.375-.294 7.157-.78 12.85-1.083 5.692-.3 11.528-.922 12.969-1.38 1.757-.557 2.337-.375 1.763.553-.47.761-.26 1.384.469 1.384.728 0 1.324-.507 1.324-1.126 0-.62 4.078-1.057 9.062-.972 4.984.085 10.469.036 12.188-.11 1.718-.144 6.134-.248 9.813-.229 3.678.02 7.34-.507 8.138-1.169 1.388-1.152 18.212-3.074 26.736-3.055 2.234.005 4.063-.463 4.063-1.04s-.554-1.049-1.231-1.049c-2.208 0-.172-12.783 2.313-14.523 1.605-1.124 2.094-2.684 1.695-5.404-.414-2.82-.067-3.823 1.322-3.823 2.227 0 3.817-3.345 2.096-4.409-.657-.406-1.9-.316-2.758.2-1.062.638-1.013.261.153-1.176.944-1.163 1.3-2.115.794-2.115-.507 0-.015-1.383 1.092-3.074 1.295-1.976 1.958-5.495 1.858-9.858-.086-3.732.23-7.41.703-8.176s.432-2.085-.092-2.932c-1.566-2.535-1.39-5.908.387-7.382 2.17-1.8 2.155-4.032-.02-3.198-1.175.451-1.72-.496-1.795-3.12-.06-2.07-.388-4.048-.732-4.392-.344-.344-.034-2.114.688-3.934.723-1.82 1.547-7.528 1.832-12.684.528-9.55 1.166-15.625 1.64-15.625.365 0 .8-3.398 1.895-14.776.882-9.173.765-9.94-1.893-12.416-2.713-2.528-2.732-2.68-.452-3.573 1.644-.645 1.8-.967.505-1.04-1.434-.083-1.502-.345-.29-1.114 2.66-1.688 4.347-9.364 2.38-10.83-3.051-2.277-3.513-7.416-.818-9.1 1.813-1.132 2.47-3.033 2.582-7.46.082-3.267.343-11.003.58-17.19.239-6.188.48-12.657.538-14.376.057-1.719-.193-7.625-.555-13.125-1.028-15.642-1.408-49.542-.56-50.066.42-.26.42-2.6 0-5.203-.763-4.729-.767-4.73-7.462-5.114-3.684-.21-7.94-1.197-9.46-2.192-1.517-.995-3.108-1.46-3.534-1.034-1.212 1.211-14.57 1.933-16.26.878-.834-.52-3.456-1.016-5.827-1.102-2.37-.086-4.548-.87-4.838-1.74-.413-1.24-.768-1.213-1.627.12-.915 1.417-1.312 1.39-2.372-.172-1.11-1.636-1.437-1.597-2.562.313-.71 1.203-2.317 2.187-3.574 2.187-1.257 0-2.92.766-3.696 1.701-.777.936-4.432 2.013-8.124 2.394-9.251.955-18.982 4.592-23.694 8.857-6.407 5.8-13.134 9.89-15.053 9.153-.984-.377-2.773.4-3.975 1.73-1.203 1.328-2.633 2.415-3.178 2.415-.546 0-2.408 1.312-4.14 2.916-1.73 1.604-6.962 4.815-11.626 7.136-4.664 2.32-11.011 6.242-14.105 8.714-3.094 2.472-8.86 6.604-12.812 9.181-3.953 2.578-7.188 5.176-7.188 5.774 0 2.215-6.55 8.78-8.76 8.78-3.118 0-12.28 9.02-13.91 13.696-.728 2.092-1.99 3.803-2.801 3.803-1.643 0-17.575 14.793-18.388 17.073-.777 2.18-13.61 15.427-14.945 15.427-.64 0-1.964 1.92-2.945 4.266-.98 2.346-2.815 5.34-4.08 6.653-4.703 4.89-9.184 10.351-9.241 11.264-.082 1.318-11.215 20.484-13.39 23.05-.981 1.16-1.455 2.644-1.051 3.297.403.653-.114 1.89-1.15 2.75-2.507 2.08-5.11 7.828-7.345 16.22-4.825 18.114-5.845 21.603-6.881 23.54-.614 1.147-1.185 2.648-1.268 3.335-.387 3.188-5.801 18.836-6.754 19.52-.59.424-.395 1.853.432 3.177 1.199 1.92 1.096 3.608-.51 8.336-1.107 3.261-2.013 8.197-2.013 10.968 0 2.771-.578 6.118-1.284 7.438-.706 1.32-1.59 7.307-1.963 13.307-.374 6-.706 11.212-.74 11.582-.473 5.336 4.975 7.304 17.03 6.153 5.144-.49 9.938-1.256 10.655-1.698zm121.303-1.834c0-.647-.65-1.578-1.444-2.068-.853-.527-1.105-.346-.617.444.455.735.12 1.622-.744 1.97-.947.382-.703.672.617.732 1.203.054 2.188-.43 2.188-1.078zm219.304-22.46c.386-.624 5.903-1.152 12.26-1.174 6.359-.022 15.498-.078 20.31-.125 4.813-.047 10.676.47 13.028 1.15 2.575.743 4.823.782 5.646.1 1.193-.99 5.513-1.296 19.764-1.392 1.89-.013 3.438-.6 3.438-1.307 0-.706.984-.992 2.187-.634 1.203.358 10.063.947 19.688 1.31 27.892 1.054 35.614 1.136 36.362.388.385-.386 2.304-.242 4.263.32s3.933.651 4.387.2c.454-.454 9.075-.91 19.157-1.014 39.7-.409 89.773-.36 93.33.088 2.063.261 4.454-.1 5.313-.803 1.122-.917 1.563-.754 1.563.577 0 1.373 1.208 1.758 4.653 1.485 2.56-.203 9.31.04 15 .538 5.69.5 10.347.723 10.347.5 0-.225-.83-1.673-1.842-3.22-1.013-1.545-2.05-4.197-2.306-5.893-.286-1.902-1.408-3.224-2.928-3.452-2.416-.362-5.63-6.734-6.085-12.067-.115-1.34-.857-2.653-1.65-2.917-.791-.264-1.44-1.277-1.44-2.25 0-.975-.631-1.77-1.402-1.77-.97 0-.923-.58.153-1.877 1.265-1.525 1.206-1.875-.32-1.875-2.112 0-4.27-2.207-4.89-5.004-.23-1.029-.71-2.152-1.07-2.496-1.827-1.747-4.97-7.647-4.97-9.33 0-1.056-.555-1.92-1.234-1.92-2.002 0-5.064-8.75-4.228-12.082.61-2.43.217-3.216-1.884-3.765-1.564-.41-2.654-1.698-2.654-3.138 0-1.344-.844-3.287-1.875-4.318-1.032-1.032-1.875-3.26-1.875-4.95 0-1.79-.915-3.412-2.188-3.88-1.203-.44-2.644-1.56-3.202-2.486-.558-.926-1.478-1.397-2.045-1.046-.567.35-1.324-.483-1.682-1.852-.4-1.532.145-2.954 1.42-3.698 1.376-.803 1.517-1.222.42-1.247-2.432-.056-4.683-2.714-5.687-6.714-.487-1.94-2.334-5.717-4.106-8.394-1.772-2.677-2.916-5.664-2.543-6.637.373-.973-.405-2.932-1.73-4.353-1.324-1.422-2.407-3.47-2.407-4.552 0-1.08-.844-2.29-1.875-2.686-1.032-.396-1.875-2.065-1.875-3.71 0-1.646-.563-3.062-1.25-3.148a25.564 25.564 0 0 1-2.5-.469 27.823 27.823 0 0 0-2.361-.469c-.611-.086-1.47-2.063-1.906-4.393-.528-2.812-1.651-4.46-3.341-4.903-1.607-.42-2.403-1.505-2.157-2.94.24-1.397-.7-2.755-2.44-3.525-1.556-.689-2.558-1.96-2.227-2.824.332-.864.058-1.57-.608-1.57s-1.21-.837-1.21-1.858c0-1.022-2.232-3.334-4.96-5.14-2.73-1.805-5.276-4.204-5.66-5.33-.385-1.126-4.617-4.86-9.405-8.298-4.787-3.437-8.71-6.672-8.715-7.187-.01-.516-.923-.938-2.038-.938-1.661 0-1.747-.34-.472-1.875 1.66-2 1.577-2.04-4.688-2.365-2.197-.114-9.42-4.567-20.025-12.344-9.123-6.69-17.633-12.166-18.91-12.166-1.276 0-3.003-.822-3.837-1.826-.834-1.005-2.73-2.207-4.216-2.67-1.485-.466-4.29-2.175-6.233-3.8-1.943-1.625-4.31-2.954-5.26-2.954-.95 0-3.296-1.969-5.216-4.375-1.92-2.406-4.442-4.375-5.604-4.375-1.163 0-2.386-.44-2.718-.977-.332-.538-3.758-1.11-7.613-1.27-7.342-.309-23.072-5.735-24.777-8.549-.534-.882-3.065-1.95-5.625-2.376-2.56-.425-5.497-1.106-6.528-1.514-1.032-.408-3.505-.927-5.497-1.153-1.992-.225-4.242-.88-5-1.455-.758-.575-4.753-2.02-8.878-3.21s-9.75-2.924-12.5-3.85c-5.101-1.72-18.484-3.756-21.88-3.329-1.034.13-2.44-1.005-3.125-2.522-1.692-3.746-3.406-4.05-6.707-1.186-1.891 1.64-2.327 2.702-1.356 3.302.83.513 1.202 2.79.886 5.424-.3 2.497.15 5.665 1.004 7.04 1.233 1.987 1.234 3.71.01 8.392-.85 3.241-1.145 6.335-.657 6.875 1.52 1.683 2.22 11.087.989 13.286-.644 1.15-.733 2.79-.197 3.645 1.535 2.448 1.873 7.177.513 7.177-1.495 0-4.05 8.667-3.04 10.304.397.64 1.782.886 3.079.547 1.684-.44 2.36.045 2.36 1.692 0 1.27-.487 2.61-1.082 2.978-.595.368-.896 2.23-.67 4.136.916 7.685.825 15.058-.206 16.715-.6.964-.927 3.02-.727 4.566.2 1.547-.24 2.812-.976 2.812-.737 0-1.34.904-1.34 2.01 0 1.35.674 1.75 2.053 1.22 1.85-.71 1.962.3 1.126 10.18-1.356 16.05-1.437 25.322-.27 30.965.968 4.67 1.288 10.523 2.435 44.434.476 14.08 1.06 16.191 4.48 16.191 4.298 0 5.002 2.392 2.328 7.905-3.126 6.443-3.748 12.675-1.81 18.125 1.353 3.806 1.223 4.347-1.548 6.438-2.81 2.12-2.923 2.625-1.58 7.095.797 2.647 1.788 6.078 2.2 7.625.416 1.547 1.56 2.812 2.546 2.812.985 0 1.79.904 1.79 2.01 0 1.271-.687 1.744-1.875 1.29-2.32-.892-2.318-.823.084 3.992 1.078 2.16 1.607 4.496 1.177 5.192-.43.697.06 1.266 1.092 1.266 1.03 0 2.19-.51 2.577-1.135zm175.696-5.114c1.03-.666 2.718-1.212 3.75-1.212 1.666 0 1.666.135 0 1.212-1.032.667-2.72 1.212-3.75 1.212-1.667 0-1.667-.135 0-1.212zm-219.375-298.06l5-1.44-.282-7.087c-.305-7.686-.886-11.57-2.24-14.975-.53-1.33-.3-2.188.587-2.188.8 0 1.112-.558.69-1.24-1.102-1.784-1.495-11.35-.492-11.97.708-.438.343-24.85-.606-40.54-.145-2.406.199-5.015.764-5.798.566-.783.564-3.595 0-6.25-.568-2.655-.9-7.499-.74-10.764.162-3.266-.246-5.938-.907-5.938s-.343-1.31.706-2.912c1.05-1.602 1.555-3.266 1.123-3.698-1.09-1.09-1.307-13.5-.247-14.155.644-.398.43-23.61-.22-23.61-.066 0-.393-5.344-.726-11.875a5985.15 5985.15 0 0 0-.88-16.875c-.152-2.75-.692-5.64-1.201-6.425-1.115-1.714-.368-10.864 1.076-13.176.566-.907 1.143-2.396 1.28-3.309.14-.913.63-2.6 1.094-3.75.462-1.15.93-4.678 1.039-7.84.108-3.165.992-6.71 1.964-7.882 2.074-2.499 7.094-5.46 5.853-3.454-.438.71-.163 1.68.61 2.158 1.007.622 1.159-.605.533-4.307-.795-4.708-.525-5.502 2.989-8.784 2.124-1.985 3.863-4.475 3.863-5.534 0-1.058.562-2.272 1.25-2.697 2.092-1.293 1.44-2.883-3.092-7.55-6.901-7.106-9.438-10.762-8.526-12.284.626-1.047.377-1.052-.955-.023-3.606 2.788-15.827-1.62-14.45-5.21.702-1.83-5.92-4.954-7.902-3.73-.73.451-1.325 1.676-1.325 2.723s-1.97 5.263-4.375 9.368c-2.407 4.106-4.375 7.795-4.375 8.198 0 .403-.834 1.357-1.852 2.12-1.018.764-2.057 2.513-2.31 3.888-.478 2.617-2.516 7.434-4.495 10.625-3.124 5.038-4.214 12.135-2.254 14.676.696.9 2.445 1.237 4.179.802 2.663-.669 2.982-.334 2.982 3.137 0 2.37.587 3.763 1.505 3.573.828-.172 1.532.343 1.563 1.145.03.803.478 1.88.994 2.396s.938 1.97.938 3.23.775 2.291 1.723 2.291c3.086 0 4.898 6.865 3.873 14.674-1.472 11.216-1.514 13.483-.395 21.667.576 4.208.666 8.267.2 9.02-.466.754-.902 3.934-.97 7.068-.066 3.133-.577 6.424-1.134 7.313-.575.92-.36 2.404.498 3.438.987 1.19 1.097 2.362.317 3.383-.657.86-1.148 6.765-1.09 13.124.056 6.36-.225 11.563-.625 11.563s-.833 5.414-.96 12.03c-.127 6.617-.538 12.527-.914 13.134-.375.607.37 2.646 1.658 4.532 2.61 3.824 2.828 11.253.375 12.77-1.265.781-1.242 1.124.115 1.68 1.332.545 1.2 1.105-.61 2.567-2.426 1.963-1.85 4.537 1.017 4.537 2.724 0 3.097 12.575.452 15.22-1.884 1.884-1.907 2.284-.21 3.693 1.698 1.41 1.677 1.748-.196 3.117-1.35.988-1.82 2.425-1.312 4.023.434 1.368.195 2.854-.532 3.303-.727.45-.974 1.378-.55 2.064.423.685-.096 1.912-1.154 2.726-1.805 1.388-2.664 12.876-2.194 29.344l.118 4.114 9.687-.863c5.328-.474 11.938-1.51 14.688-2.302zm70 2174.31c.424-.687 1.02-1.25 1.323-1.25.304 0 .552.563.552 1.25 0 .688-.596 1.25-1.324 1.25-.728 0-.976-.562-.551-1.25zm-333.75-2065c.424-.687 1.02-1.25 1.323-1.25.304 0 .552.563.552 1.25 0 .688-.596 1.25-1.324 1.25-.728 0-.976-.562-.551-1.25z" fill="#810003"/>
</svg>
